<?xml version="1.0" encoding="UTF-8"?>
<svg width="176px" height="176px" viewBox="0 0 176 176" version="1.1" xmlns="http://www.w3.org/2000/svg" xmlns:xlink="http://www.w3.org/1999/xlink">
    <!-- Generator: Sketch 53.2 (72643) - https://sketchapp.com -->
    <title>Shape</title>
    <desc>Created with Sketch.</desc>
    <g id="Page-1" stroke="none" stroke-width="1" fill="none" fill-rule="evenodd">
        <g id="info-1440" transform="translate(-1059.000000, -616.000000)" fill="#E6B800" fill-rule="nonzero">
            <g id="Group" transform="translate(1059.000000, 616.000000)">
                <path d="M88,-1.27897692e-13 C39.4023438,-1.27897692e-13 0,39.4023437 0,88 C0,126.886719 25.212,159.865234 60.1830625,171.498937 C64.5820312,172.304687 66.1880312,169.586828 66.1880312,167.266516 C66.1880312,165.171703 66.1074219,158.232422 66.0644531,150.884766 C41.59375,156.202062 36.4213437,140.507812 36.4213437,140.507812 C32.4145938,130.345703 26.6512813,127.638672 26.6512813,127.638672 C18.6537656,122.181641 27.258,122.289062 27.258,122.289062 C36.0934063,122.901281 40.7450313,131.355469 40.7450313,131.355469 C48.5976562,144.804687 61.3485469,140.916016 66.3544062,138.660156 C67.1543125,132.988281 69.4316563,129.099609 71.9403437,126.908203 C52.4057187,124.684656 31.856,117.132812 31.856,83.413 C31.856,73.7986562 35.2881719,65.9570312 40.90625,59.7963437 C40.0092344,57.5619687 36.9799375,48.6083125 41.7762813,36.496625 C41.7762813,36.496625 49.15625,34.1333437 65.9783438,45.5200625 C72.9929063,43.5596562 80.5179375,42.5928594 87.9998281,42.5605469 C95.4763906,42.5928594 103.006578,43.5703125 110.032141,45.5307187 C126.822266,34.1333437 134.212891,36.5072812 134.212891,36.5072812 C139.025391,48.6297969 135.996094,57.572625 135.09375,59.7963437 C140.733313,65.9570312 144.138672,73.7988281 144.138672,83.413 C144.138672,117.21875 123.556641,124.663 103.952234,126.84375 C107.121266,129.572266 109.924891,134.921875 109.924891,143.128906 C109.924891,154.891687 109.806641,164.376953 109.806641,167.277344 C109.806641,169.619141 111.407141,172.358312 115.865234,171.498937 C150.809656,159.84375 176,126.865234 176,88 C176,39.4023437 136.597656,-1.27897692e-13 88,-1.27897692e-13 Z" id="Shape"></path>
            </g>
        </g>
    </g>
</svg>