<?xml version="1.0" encoding="UTF-8"?>
<svg width="160px" height="80px" viewBox="0 0 160 80" version="1.1" xmlns="http://www.w3.org/2000/svg" xmlns:xlink="http://www.w3.org/1999/xlink">
    <!-- Generator: Sketch 53.2 (72643) - https://sketchapp.com -->
    <title>Logo</title>
    <desc>Created with Sketch.</desc>
    <g id="Page-1" stroke="none" stroke-width="1" fill="none" fill-rule="evenodd">
        <g id="app-1440">
            <g id="Header">
                <g id="Logo">
                    <path d="M79.3590625,41.6083813 L76.5214062,55.7320442 L73.2273437,55.7320442 L74.6164062,48.7693958 L72.09625,52.2606383 L69.9928125,52.2606383 L68.7029687,48.7693958 L67.2940625,55.7320442 L64,55.7320442 L66.8376562,41.6083813 L69.9134375,41.6083813 L71.7192187,47.8370753 L76.1245312,41.6083813 L79.3590625,41.6083813 Z M90.2135937,55.7320442 L86.86,55.7320442 L86.6615625,53.5103444 L82.4745312,53.5103444 L81.383125,55.7320442 L77.8707812,55.7320442 L85.5701562,41.6083813 L88.13,41.6083813 L90.2135937,55.7320442 Z M86.4035937,50.8324027 L85.9670312,46.6667156 L83.8239062,50.8324027 L86.4035937,50.8324027 Z M103.449375,45.5360292 C103.449375,47.9759316 101.62375,50.4951804 98.0915625,50.4951804 L95.90875,50.4951804 L94.8570312,55.7320442 L91.5629687,55.7320442 L94.400625,41.6083813 L99.5401562,41.6083813 C101.822187,41.6083813 103.449375,43.0762901 103.449375,45.5360292 Z M100.135469,45.8335782 C100.135469,45.0996238 99.8179687,44.5243623 98.9646875,44.5243623 L97.1192187,44.5243623 L96.5040625,47.5791995 L98.2304687,47.5791995 C99.71875,47.5791995 100.135469,46.34933 100.135469,45.8335782 Z M114.8,43.2548196 L112.498125,45.2781533 C111.902812,44.5441989 111.128906,44.3656694 110.19625,44.3656694 C108.846875,44.3656694 108.072969,45.1988069 108.072969,45.9129247 C108.072969,46.6667156 108.707969,46.8254085 109.283438,46.9841013 L110.355,47.2618138 C112.835469,47.8965852 113.649063,49.0471083 113.649063,51.070442 C113.649063,54.4823381 110.811406,55.8510638 107.795156,55.8510638 C105.43375,55.8510638 104.024844,55.3154755 102.794531,53.9070765 L105.175781,51.824233 C105.870312,52.6176972 106.8625,52.9350829 108.092813,52.9350829 C109.382656,52.9350829 110.335156,52.2209651 110.335156,51.4076643 C110.335156,50.6538733 109.918437,50.3959974 109.144531,50.1976314 L108.072969,49.9199189 C105.215469,49.1859645 104.778906,47.5395263 104.778906,46.448513 C104.778906,43.3540026 107.18,41.4893617 110.573281,41.4893617 C112.339375,41.4893617 113.907031,42.1042965 114.8,43.2548196 Z" id="Maps" fill="#FFFFFF"></path>
                    <path d="M75.8344828,28.4390796 L72.5400149,28.4390796 C72.5201687,27.6257788 72.242322,26.8323146 71.1706276,26.8323146 C70.4561647,26.8323146 70.0989333,27.0901904 69.7417018,27.4472493 C69.2852394,27.9034912 68.9677003,28.7366287 68.4913917,31.1170213 C68.3326222,31.9104855 68.1143141,33.1601916 68.1143141,33.894146 C68.1143141,34.8661396 68.6700074,35.401728 69.5432399,35.401728 C70.5950881,35.401728 71.21032,34.6082638 71.5278591,33.794963 L74.9215579,33.794963 C73.8895559,36.8894734 71.8057058,38.2978723 69.2852394,38.2978723 C66.3083106,38.2978723 64.8,36.2943752 64.8,34.1718585 C64.8,33.5370871 64.899231,32.5055836 65.1770776,31.1170213 C65.6732324,28.6374456 66.0304639,26.9314976 67.3006202,25.5826084 C68.4715455,24.3329023 70.0393947,23.9361702 71.4087819,23.9361702 C74.4254031,23.9361702 75.8344828,25.9595039 75.8344828,28.4390796 Z M87.7025056,28.1415305 C87.7025056,29.7086223 86.7498884,31.53359 84.646192,32.4064006 L86.5315803,38.1788527 L82.9195733,38.1788527 L81.4311089,32.8229693 L80.1807988,32.8229693 L79.0892582,38.1788527 L75.7947904,38.1788527 L78.6327958,24.0551898 L83.6538824,24.0551898 C86.610965,24.0551898 87.7025056,25.9595039 87.7025056,28.1415305 Z M84.3881915,28.32006 C84.3881915,27.4472493 83.9118829,26.9910074 83.098189,26.9910074 L81.3517241,26.9910074 L80.716646,30.0855178 L82.4432647,30.0855178 C84.0111139,30.0855178 84.3881915,28.8953215 84.3881915,28.32006 Z M94.3112875,24.0551898 L91.0168196,24.0551898 L88.1788142,38.1788527 L91.4732821,38.1788527 L94.3112875,24.0551898 Z M106.119772,24.0551898 L105.524386,26.9711708 L102.289457,26.9711708 L100.046837,38.1788527 L96.7523691,38.1788527 L98.9949888,26.9711708 L95.6211362,26.9711708 L96.216522,24.0551898 L106.119772,24.0551898 Z M111.379013,24.0551898 L108.541007,38.1788527 L105.246539,38.1788527 L108.084545,24.0551898 L111.379013,24.0551898 Z M122.869958,28.4390796 L119.57549,28.4390796 C119.555644,27.6257788 119.277797,26.8323146 118.206103,26.8323146 C117.49164,26.8323146 117.134408,27.0901904 116.777177,27.4472493 C116.320714,27.9034912 116.003175,28.7366287 115.526867,31.1170213 C115.368097,31.9104855 115.149789,33.1601916 115.149789,33.894146 C115.149789,34.8661396 115.705483,35.401728 116.578715,35.401728 C117.630563,35.401728 118.245795,34.6082638 118.563334,33.794963 L121.957033,33.794963 C120.925031,36.8894734 118.841181,38.2978723 116.320714,38.2978723 C113.343786,38.2978723 111.835475,36.2943752 111.835475,34.1718585 C111.835475,33.5370871 111.934706,32.5055836 112.212553,31.1170213 C112.708708,28.6374456 113.065939,26.9314976 114.336095,25.5826084 C115.507021,24.3329023 117.07487,23.9361702 118.444257,23.9361702 C121.460878,23.9361702 122.869958,25.9595039 122.869958,28.4390796 Z M133.825056,38.1788527 L130.471049,38.1788527 L130.272587,35.9571529 L126.085041,35.9571529 L124.9935,38.1788527 L121.480724,38.1788527 L129.181047,24.0551898 L131.741206,24.0551898 L133.825056,38.1788527 Z M130.014587,33.2792112 L129.577971,29.1135242 L127.434582,33.2792112 L130.014587,33.2792112 Z M144.8,35.2827084 L139.064451,35.2827084 L141.30707,24.0551898 L138.012602,24.0551898 L135.174597,38.1788527 L144.22446,38.1788527 L144.8,35.2827084 Z" id="Critical" fill="#FFFFFF"></path>
                    <path d="M42.6434189,31.7043792 L45.8206183,34.477035 L45.161096,35.3697205 L47.9898153,38.1909166 L45.4339274,41.3772795 L46.1913423,47.4204837 L43.0929581,50.4746956 L44.4915298,58.2238739 C48.5495347,56.3335622 51.8693734,53.1303595 53.9017211,49.1621297 L50.1182999,47.2032852 C50.9117429,45.6820309 51.4652536,44.0163936 51.7288097,42.2562628 L55.8917457,42.881583 C56.0219697,41.9599067 56.0893149,41.0180885 56.0893149,40.0605827 C56.0893149,34.5397458 53.8504203,29.54044 50.228769,25.9165262 L47.3309029,28.7631348 C46.1095072,27.5264683 44.6861124,26.4888034 43.1140592,25.7033393 L44.9191792,22.1027011 C42.2318732,20.772529 39.2035023,20.0246969 36,20.0246969 C32.7964977,20.0246969 29.7681268,20.772529 27.0808208,22.1027011 L28.8859408,25.7033393 C27.3138876,26.4888034 25.8904928,27.5264683 24.6690971,28.7631348 L21.771231,25.9165262 C18.1495797,29.54044 15.9106851,34.5397458 15.9106851,40.0605827 C15.9106851,41.0180885 15.9780303,41.9599067 16.1082543,42.881583 L20.2711903,42.2562628 C20.5347464,44.0163936 21.0882571,45.6820309 21.8817001,47.2032852 L18.0982789,49.1621297 C20.144883,53.1581958 23.4971044,56.378464 27.5939769,58.2634601 L28.5666039,49.694771 L23.2357564,39.412184 L27.6043039,29.3909295 L30.075077,30.6230995 L34.0469582,25.9415421 L37.6260686,27.5280272 L38.2153568,26.8423529 L43.289362,30.7783055 L42.6434189,31.7043792 L42.6434189,31.7043792 Z" id="Yellow" fill="#transparent"></path>
                    <path d="M35.2093453,38.1709381 L36.4053932,36.4561918 L28.7956961,32.6612498 L25.8915164,39.3233093 L31.0333961,49.2413992 L29.9077026,59.1585789 C30.8058088,59.4433031 31.7312937,59.6667568 32.6792205,59.824016 L33.3924835,55.5432092 C34.2408956,55.682768 35.1119478,55.75536 36,55.75536 C36.8880522,55.75536 37.7591044,55.682768 38.6075165,55.5432092 L39.3207795,59.824016 C40.3117883,59.6596096 41.278269,59.4228551 42.2145804,59.1193786 L40.5070419,49.6582831 L43.6632031,46.5471178 L43.3420984,43.9851116 L42.2493262,45.3474439 L35.4554984,40.5645551 L31.1090909,40.5645551 L31.1090909,38.1709381 L35.2093453,38.1709381 L35.2093453,38.1709381 Z M37.5020417,39.0754528 L38.7783019,39.9739464 L42.5793817,34.8290579 L41.2643729,33.6814855 L37.5020417,39.0754528 L37.5020417,39.0754528 Z M35.9959128,29.4248175 L34.7166781,28.8577809 L32.2842578,31.724814 L33.4987181,32.3304631 L35.9959128,29.4248175 L35.9959128,29.4248175 Z M35.7113715,33.4339093 L37.7903083,34.4706712 L40.0197289,31.2744024 L38.5482796,30.1329856 L35.7113715,33.4339093 L35.7113715,33.4339093 Z M40.7394314,41.3545914 L43.7211695,37.3187092 L44.7738211,38.3685612 L41.7870374,42.0921112 L40.7394314,41.3545914 Z M36,59.62362 C35.3372583,59.62362 34.8,59.0877905 34.8,58.4268115 C34.8,57.7658324 35.3372583,57.2300029 36,57.2300029 C36.6627417,57.2300029 37.2,57.7658324 37.2,58.4268115 C37.2,59.0877905 36.6627417,59.62362 36,59.62362 Z M17.1856139,45.9905232 C16.9808154,45.3618948 17.3257565,44.6867103 17.9560613,44.4824565 C18.5863661,44.2782028 19.2633511,44.6222264 19.4681495,45.2508549 C19.672948,45.8794834 19.3280069,46.5546678 18.6977021,46.7589216 C18.0673973,46.9631754 17.3904123,46.6191517 17.1856139,45.9905232 Z M24.3720699,23.9317093 C24.9082392,23.5431956 25.6586828,23.6617381 26.0482326,24.1964814 C26.4377824,24.7312247 26.3189238,25.4796724 25.7827545,25.8681862 C25.2465852,26.2566999 24.4961416,26.1381575 24.1065918,25.6034142 C23.717042,25.0686708 23.8359006,24.3202231 24.3720699,23.9317093 Z M54.8143861,45.9905232 C54.6095877,46.6191517 53.9326027,46.9631754 53.3022979,46.7589216 C52.6719931,46.5546678 52.327052,45.8794834 52.5318505,45.2508549 C52.7366489,44.6222264 53.4136339,44.2782028 54.0439387,44.4824565 C54.6742435,44.6867103 55.0191846,45.3618948 54.8143861,45.9905232 Z M47.6279301,23.9317093 C48.1640994,24.3202231 48.282958,25.0686708 47.8934082,25.6034142 C47.5038584,26.1381575 46.7534148,26.2566999 46.2172455,25.8681862 C45.6810762,25.4796724 45.5622176,24.7312247 45.9517674,24.1964814 C46.3413172,23.6617381 47.0917608,23.5431956 47.6279301,23.9317093 Z" id="White" fill="transparent"></path>
                    <path d="M35.2093453,38.1709381 L36.4053932,36.4561918 L28.7956961,32.6612498 L25.8915164,39.3233093 L31.0333961,49.2413992 L29.9077026,59.1585789 C30.8058088,59.4433031 31.7312937,59.6667568 32.6792205,59.824016 L33.3924835,55.5432092 C34.2408956,55.682768 35.1119478,55.75536 36,55.75536 C36.8880522,55.75536 37.7591044,55.682768 38.6075165,55.5432092 L39.3207795,59.824016 C40.3117883,59.6596096 41.278269,59.4228551 42.2145804,59.1193786 L40.5070419,49.6582831 L43.6632031,46.5471178 L43.3420984,43.9851116 L42.2493262,45.3474439 L35.4554984,40.5645551 L31.1090909,40.5645551 L31.1090909,38.1709381 L35.2093453,38.1709381 L35.2093453,38.1709381 Z M37.5020417,39.0754528 L38.7783019,39.9739464 L42.5793817,34.8290579 L41.2643729,33.6814855 L37.5020417,39.0754528 L37.5020417,39.0754528 Z M42.6434189,31.7043792 L45.8206183,34.477035 L45.161096,35.3697205 L47.9898153,38.1909166 L45.4339274,41.3772795 L46.1913423,47.4204837 L43.0929581,50.4746956 L44.4915298,58.2238739 C48.5495347,56.3335622 51.8693734,53.1303595 53.9017211,49.1621297 L50.1182999,47.2032852 C50.9117429,45.6820309 51.4652536,44.0163936 51.7288097,42.2562628 L55.8917457,42.881583 C56.0219697,41.9599067 56.0893149,41.0180885 56.0893149,40.0605827 C56.0893149,34.5397458 53.8504203,29.54044 50.228769,25.9165262 L47.3309029,28.7631348 C46.1095072,27.5264683 44.6861124,26.4888034 43.1140592,25.7033393 L44.9191792,22.1027011 C42.2318732,20.772529 39.2035023,20.0246969 36,20.0246969 C32.7964977,20.0246969 29.7681268,20.772529 27.0808208,22.1027011 L28.8859408,25.7033393 C27.3138876,26.4888034 25.8904928,27.5264683 24.6690971,28.7631348 L21.771231,25.9165262 C18.1495797,29.54044 15.9106851,34.5397458 15.9106851,40.0605827 C15.9106851,41.0180885 15.9780303,41.9599067 16.1082543,42.881583 L20.2711903,42.2562628 C20.5347464,44.0163936 21.0882571,45.6820309 21.8817001,47.2032852 L18.0982789,49.1621297 C20.144883,53.1581958 23.4971044,56.378464 27.5939769,58.2634601 L28.5666039,49.694771 L23.2357564,39.412184 L27.6043039,29.3909295 L30.075077,30.6230995 L34.0469582,25.9415421 L37.6260686,27.5280272 L38.2153568,26.8423529 L43.289362,30.7783055 L42.6434189,31.7043792 L42.6434189,31.7043792 Z M35.9959128,29.4248175 L34.7166781,28.8577809 L32.2842578,31.724814 L33.4987181,32.3304631 L35.9959128,29.4248175 L35.9959128,29.4248175 Z M35.7113715,33.4339093 L37.7903083,34.4706712 L40.0197289,31.2744024 L38.5482796,30.1329856 L35.7113715,33.4339093 L35.7113715,33.4339093 Z M40.7394314,41.3545914 L41.7870374,42.0921112 L44.7738211,38.3685612 L43.7211695,37.3187092 L40.7394314,41.3545914 L40.7394314,41.3545914 Z M14.5172087,32.8748638 C14.6700873,32.409133 14.8377674,31.9500859 15.0196946,31.4982755 C14.8215488,31.113918 14.4219924,30.7401787 13.8940738,30.466909 C14.098258,29.991253 14.3174249,29.5235166 14.5509826,29.0642901 C15.1007816,29.2920214 15.6451634,29.3567657 16.0677981,29.2604747 C16.2989082,28.8304531 16.5435997,28.408778 16.8013007,27.9960199 C16.6741481,27.5828909 16.3461985,27.1449819 15.8739276,26.7837551 C16.1576945,26.3513157 16.4550949,25.9285787 16.7655198,25.5161514 C17.2681329,25.8354185 17.7936126,25.9927338 18.2265606,25.9697941 C18.5274613,25.5882714 18.8404462,25.216675 19.16494,24.8555788 C19.1127068,24.4264434 18.8663806,23.9376393 18.4640752,23.4993361 C18.8181976,23.1227171 19.1843776,22.7575109 19.562001,22.4043303 C20.001473,22.8055657 20.4915805,23.0512368 20.9218603,23.1033311 C21.2839195,22.7797003 21.6565068,22.4675478 22.0390469,22.1674474 C22.0620478,21.7356508 21.9043129,21.2115687 21.5841945,20.7102924 C21.9977216,20.400693 22.4215858,20.1040836 22.8551784,19.8210714 C23.2173685,20.2920863 23.6564453,20.6191636 24.0706759,20.7459781 C24.4845348,20.4889625 24.9073343,20.2449218 25.3385026,20.0144263 C25.4350505,19.5929157 25.3701335,19.0499817 25.1417948,18.5016449 C25.602246,18.2687084 26.0712296,18.0501243 26.548154,17.8464831 C26.8221526,18.3729977 27.1968884,18.7714915 27.5822709,18.9691103 C28.0352861,18.787667 28.4955574,18.6204328 28.9625301,18.4679608 C29.1303524,18.069487 29.1605549,17.5239747 29.0310792,16.9449855 C29.5244193,16.7961652 30.0244606,16.6627357 30.5306416,16.5452569 C30.7090944,17.1117008 31.0092559,17.5692561 31.3548577,17.8303075 C31.8304398,17.7312154 32.3115118,17.6470328 32.7975599,17.5782721 C33.0331901,17.2156462 33.1587946,16.6836627 33.1327446,16.0906847 C33.6436078,16.03012 34.1593863,15.9855356 34.6795634,15.9574468 C34.7575572,16.5467792 34.9747043,17.049383 35.2708297,17.3652331 C35.5129449,17.3575792 35.756021,17.3537234 36,17.3537234 C36.243979,17.3537234 36.4870551,17.3575792 36.7291703,17.3652331 C37.0252957,17.049383 37.2424428,16.5467792 37.3204366,15.9574468 C37.8406137,15.9855356 38.3563922,16.03012 38.8672554,16.0906847 C38.8412054,16.6836627 38.9668099,17.2156462 39.2024401,17.5782721 C39.6884882,17.6470328 40.1695602,17.7312154 40.6451423,17.8303075 C40.9907441,17.5692561 41.2909056,17.1117008 41.4693584,16.5452569 C41.9755394,16.6627357 42.4755807,16.7961652 42.9689208,16.9449855 C42.8394451,17.5239747 42.8696476,18.069487 43.0374699,18.4679608 C43.5044426,18.6204328 43.9647139,18.787667 44.4177291,18.9691103 C44.8031116,18.7714915 45.1778474,18.3729977 45.451846,17.8464831 C45.9287704,18.0501243 46.397754,18.2687084 46.8582052,18.5016449 C46.6298665,19.0499817 46.5649495,19.5929157 46.6614974,20.0144263 C47.0926657,20.2449218 47.5154652,20.4889625 47.9293241,20.7459781 C48.3435547,20.6191636 48.7826315,20.2920863 49.1448216,19.8210714 C49.5784142,20.1040836 50.0022784,20.400693 50.4158055,20.7102924 C50.0956871,21.2115687 49.9379522,21.7356508 49.9609531,22.1674474 C50.3434932,22.4675478 50.7160805,22.7797003 51.0781397,23.1033311 C51.5084195,23.0512368 51.998527,22.8055657 52.437999,22.4043303 C52.8156224,22.7575109 53.1818024,23.1227171 53.5359248,23.4993361 C53.1336194,23.9376393 52.8872932,24.4264434 52.83506,24.8555788 C53.1595538,25.216675 53.4725387,25.5882714 53.7734394,25.9697941 C54.2063874,25.9927338 54.7318671,25.8354185 55.2344802,25.5161514 C55.5449051,25.9285787 55.8423055,26.3513157 56.1260724,26.7837551 C55.6538015,27.1449819 55.3258519,27.5828909 55.1986993,27.9960199 C55.4564003,28.408778 55.7010918,28.8304531 55.9322019,29.2604747 C56.3548366,29.3567657 56.8992184,29.2920214 57.4490174,29.0642901 C57.6825751,29.5235166 57.901742,29.991253 58.1059262,30.466909 C57.5780076,30.7401787 57.1784512,31.113918 56.9803054,31.4982755 C57.1622326,31.9500859 57.3299127,32.409133 57.4827913,32.8748638 C57.8823277,33.0422398 58.4292947,33.0723619 59.0098279,32.9432306 C59.159045,33.4352586 59.2928304,33.93397 59.4106224,34.4388048 C58.842668,34.616783 58.3838925,34.9161461 58.122145,35.2608288 C58.2215013,35.7351461 58.3059084,36.2149387 58.3748525,36.699694 C58.7384454,36.9346976 59.2718475,37.059968 59.8664068,37.0339873 C59.927133,37.5434918 59.9718363,38.0578985 60,38.5766922 C59.4090961,38.6544785 58.905152,38.8710482 58.5884596,39.166386 C58.5961339,39.4078573 58.6,39.6502869 58.6,39.893617 C58.6,40.1369472 58.5961339,40.3793768 58.5884596,40.620848 C58.905152,40.9161859 59.4090961,41.1327555 60,41.2105418 C59.9718363,41.7293355 59.927133,42.2437423 59.8664068,42.7532468 C59.2718475,42.7272661 58.7384454,42.8525365 58.3748525,43.08754 C58.3059084,43.5722954 58.2215013,44.0520879 58.122145,44.5264052 C58.3838925,44.8710879 58.842668,45.1704511 59.4106224,45.3484292 C59.2928304,45.853264 59.159045,46.3519755 59.0098279,46.8440034 C58.4292947,46.7148721 57.8823277,46.7449943 57.4827913,46.9123702 C57.3299127,47.378101 57.1622326,47.8371482 56.9803054,48.2889586 C57.1784512,48.6733161 57.5780076,49.0470553 58.1059262,49.3203251 C57.901742,49.7959811 57.6825751,50.2637175 57.4490174,50.722944 C56.8992184,50.4952126 56.3548366,50.4304683 55.9322019,50.5267593 C55.7010918,50.9567809 55.4564003,51.378456 55.1986993,51.7912142 C55.3258519,52.2043432 55.6538015,52.6422521 56.1260724,53.003479 C55.8423055,53.4359184 55.5449051,53.8586554 55.2344802,54.2710826 C54.7318671,53.9518156 54.2063874,53.7945002 53.7734394,53.8174399 C53.4725387,54.1989627 53.1595538,54.5705591 52.83506,54.9316553 C52.8872932,55.3607907 53.1336194,55.8495947 53.5359248,56.2878979 C53.1818024,56.664517 52.8156224,57.0297232 52.437999,57.3829037 C51.998527,56.9816683 51.5084195,56.7359972 51.0781397,56.683903 C50.7160805,57.0075337 50.3434932,57.3196862 49.9609531,57.6197867 C49.9379522,58.0515832 50.0956871,58.5756653 50.4158055,59.0769417 C50.0022784,59.386541 49.5784142,59.6831505 49.1448216,59.9661626 C48.7826315,59.4951478 48.3435547,59.1680704 47.9293241,59.0412559 C47.5154652,59.2982715 47.0926657,59.5423123 46.6614974,59.7728077 C46.5649495,60.1943184 46.6298665,60.7372524 46.8582052,61.2855891 C46.397754,61.5185257 45.9287704,61.7371097 45.451846,61.9407509 C45.1778474,61.4142363 44.8031116,61.0157425 44.4177291,60.8181237 C43.9647139,60.9995671 43.5044426,61.1668013 43.0374699,61.3192732 C42.8696476,61.7177471 42.8394451,62.2632593 42.9689208,62.8422486 C42.4755807,62.9910689 41.9755394,63.1244984 41.4693584,63.2419772 C41.2909056,62.6755332 40.9907441,62.2179779 40.6451423,61.9569265 C40.1695602,62.0560186 39.6884882,62.1402012 39.2024401,62.2089619 C38.9668099,62.5715878 38.8412054,63.1035713 38.8672554,63.6965494 C38.3563922,63.7571141 37.8406137,63.8016985 37.3204366,63.8297872 C37.2424428,63.2404549 37.0252957,62.7378511 36.7291703,62.422001 C36.4870551,62.4296548 36.243979,62.4335106 36,62.4335106 C35.756021,62.4335106 35.5129449,62.4296548 35.2708297,62.422001 C34.9747043,62.7378511 34.7575572,63.2404549 34.6795634,63.8297872 C34.1593863,63.8016985 33.6436078,63.7571141 33.1327446,63.6965494 C33.1587946,63.1035713 33.0331901,62.5715878 32.7975599,62.2089619 C32.3115118,62.1402012 31.8304398,62.0560186 31.3548577,61.9569265 C31.0092559,62.2179779 30.7090944,62.6755332 30.5306416,63.2419772 C30.0244606,63.1244984 29.5244193,62.9910689 29.0310792,62.8422486 C29.1605549,62.2632593 29.1303524,61.7177471 28.9625301,61.3192732 C28.4955574,61.1668013 28.0352861,60.9995671 27.5822709,60.8181237 C27.1968884,61.0157425 26.8221526,61.4142363 26.548154,61.9407509 C26.0712296,61.7371097 25.602246,61.5185257 25.1417948,61.2855891 C25.3701335,60.7372524 25.4350505,60.1943184 25.3385026,59.7728077 C24.9073343,59.5423123 24.4845348,59.2982715 24.0706759,59.0412559 C23.6564453,59.1680704 23.2173685,59.4951478 22.8551784,59.9661626 C22.4215858,59.6831505 21.9977216,59.386541 21.5841945,59.0769417 C21.9043129,58.5756653 22.0620478,58.0515832 22.0390469,57.6197867 C21.6565068,57.3196862 21.2839195,57.0075337 20.9218603,56.683903 C20.4915805,56.7359972 20.001473,56.9816683 19.562001,57.3829037 C19.1843776,57.0297232 18.8181976,56.664517 18.4640752,56.2878979 C18.8663806,55.8495947 19.1127068,55.3607907 19.16494,54.9316553 C18.8404462,54.5705591 18.5274613,54.1989627 18.2265606,53.8174399 C17.7936126,53.7945002 17.2681329,53.9518156 16.7655198,54.2710826 C16.4550949,53.8586554 16.1576945,53.4359184 15.8739276,53.003479 C16.3461985,52.6422521 16.6741481,52.2043432 16.8013007,51.7912142 C16.5435997,51.378456 16.2989082,50.9567809 16.0677981,50.5267593 C15.6451634,50.4304683 15.1007816,50.4952126 14.5509826,50.722944 C14.3174249,50.2637175 14.098258,49.7959811 13.8940738,49.3203251 C14.4219924,49.0470553 14.8215488,48.6733161 15.0196946,48.2889586 C14.8377674,47.8371482 14.6700873,47.378101 14.5172087,46.9123702 C14.1176723,46.7449943 13.5707053,46.7148721 12.9901721,46.8440034 C12.840955,46.3519755 12.7071696,45.853264 12.5893776,45.3484292 C13.157332,45.1704511 13.6161075,44.8710879 13.877855,44.5264052 C13.7784987,44.0520879 13.6940916,43.5722954 13.6251475,43.08754 C13.2615546,42.8525365 12.7281525,42.7272661 12.1335932,42.7532468 C12.072867,42.2437423 12.0281637,41.7293355 12,41.2105418 C12.5909039,41.1327555 13.094848,40.9161859 13.4115404,40.620848 C13.4038661,40.3793768 13.4,40.1369472 13.4,39.893617 C13.4,39.6502869 13.4038661,39.4078573 13.4115404,39.166386 C13.094848,38.8710482 12.5909039,38.6544785 12,38.5766922 C12.0281637,38.0578985 12.072867,37.5434918 12.1335932,37.0339873 C12.7281525,37.059968 13.2615546,36.9346976 13.6251475,36.699694 C13.6940916,36.2149387 13.7784987,35.7351461 13.877855,35.2608288 C13.6161075,34.9161461 13.157332,34.616783 12.5893776,34.4388048 C12.7071696,33.93397 12.840955,33.4352586 12.9901721,32.9432306 C13.5707053,33.0723619 14.1176723,33.0422398 14.5172087,32.8748638 Z M36,59.62362 C36.6627417,59.62362 37.2,59.0877905 37.2,58.4268115 C37.2,57.7658324 36.6627417,57.2300029 36,57.2300029 C35.3372583,57.2300029 34.8,57.7658324 34.8,58.4268115 C34.8,59.0877905 35.3372583,59.62362 36,59.62362 Z M17.1856139,45.9905232 C17.3904123,46.6191517 18.0673973,46.9631754 18.6977021,46.7589216 C19.3280069,46.5546678 19.672948,45.8794834 19.4681495,45.2508549 C19.2633511,44.6222264 18.5863661,44.2782028 17.9560613,44.4824565 C17.3257565,44.6867103 16.9808154,45.3618948 17.1856139,45.9905232 Z M24.3720699,23.9317093 C23.8359006,24.3202231 23.717042,25.0686708 24.1065918,25.6034142 C24.4961416,26.1381575 25.2465852,26.2566999 25.7827545,25.8681862 C26.3189238,25.4796724 26.4377824,24.7312247 26.0482326,24.1964814 C25.6586828,23.6617381 24.9082392,23.5431956 24.3720699,23.9317093 Z M54.8143861,45.9905232 C55.0191846,45.3618948 54.6742435,44.6867103 54.0439387,44.4824565 C53.4136339,44.2782028 52.7366489,44.6222264 52.5318505,45.2508549 C52.327052,45.8794834 52.6719931,46.5546678 53.3022979,46.7589216 C53.9326027,46.9631754 54.6095877,46.6191517 54.8143861,45.9905232 Z M47.6279301,23.9317093 C47.0917608,23.5431956 46.3413172,23.6617381 45.9517674,24.1964814 C45.5622176,24.7312247 45.6810762,25.4796724 46.2172455,25.8681862 C46.7534148,26.2566999 47.5038584,26.1381575 47.8934082,25.6034142 C48.282958,25.0686708 48.1640994,24.3202231 47.6279301,23.9317093 Z" id="Black" fill="#FFFFFF"></path>
                </g>
            </g>
        </g>
    </g>
</svg>
