<?xml version="1.0" encoding="utf-8"?>
<!-- Generator: Adobe Illustrator 19.2.0, SVG Export Plug-In . SVG Version: 6.00 Build 0)  -->
<!DOCTYPE svg PUBLIC "-//W3C//DTD SVG 1.1//EN" "http://www.w3.org/Graphics/SVG/1.1/DTD/svg11.dtd">
<svg version="1.1" id="PlayStore" xmlns="http://www.w3.org/2000/svg" xmlns:xlink="http://www.w3.org/1999/xlink" x="0px" y="0px"
	 viewBox="0 0 245 80" enable-background="new 0 0 245 80" xml:space="preserve">
<path id="Button" d="M8.8,0h227.4c4.9,0,8.8,3.9,8.8,8.8v62.4c0,4.9-3.9,8.8-8.8,8.8H8.8C3.9,80,0,76.1,0,71.2V8.8
	C0,3.9,3.9,0,8.8,0z"/>
<g id="play">
	<path fill="#FFFFFF" d="M185.7,57.2c-1,0-1.9-0.2-2.8-0.6c-0.8-0.4-1.5-0.9-2.1-1.7h-0.2c0.1,0.9,0.2,1.8,0.2,2.6v6.4h-2.3V41.5
		h1.9l0.3,2.1h0.1c0.6-0.8,1.3-1.5,2.1-1.8c0.8-0.4,1.7-0.6,2.8-0.6c2.1,0,3.6,0.7,4.7,2.1c1.1,1.4,1.7,3.4,1.7,5.9
		s-0.6,4.5-1.7,5.9C189.3,56.5,187.7,57.2,185.7,57.2z M185.4,43.2c-1.6,0-2.7,0.4-3.4,1.3c-0.7,0.9-1.1,2.3-1.1,4.2v0.5
		c0,2.2,0.4,3.7,1.1,4.7c0.7,0.9,1.9,1.4,3.5,1.4c1.3,0,2.4-0.5,3.1-1.6c0.8-1.1,1.1-2.6,1.1-4.5s-0.4-3.4-1.1-4.4
		C187.8,43.7,186.7,43.2,185.4,43.2z"/>
	<path fill="#FFFFFF" d="M197.5,56.9h-2.3V35h2.3V56.9z"/>
	<path fill="#FFFFFF" d="M211,56.9l-0.5-2.2h-0.1c-0.8,1-1.5,1.6-2.3,2c-0.8,0.3-1.7,0.5-2.9,0.5c-1.5,0-2.7-0.4-3.6-1.2
		c-0.9-0.8-1.3-1.9-1.3-3.4c0-3.1,2.5-4.8,7.5-4.9l2.6-0.1v-1c0-1.2-0.3-2.1-0.8-2.7c-0.5-0.6-1.4-0.9-2.5-0.9
		c-1.3,0-2.7,0.4-4.4,1.2l-0.7-1.8c0.8-0.4,1.6-0.7,2.5-1c0.9-0.2,1.8-0.4,2.7-0.4c1.8,0,3.2,0.4,4.1,1.2c0.9,0.8,1.3,2.1,1.3,3.9
		v10.6H211V56.9z M205.7,55.3c1.5,0,2.6-0.4,3.4-1.2c0.8-0.8,1.2-1.9,1.2-3.4v-1.4l-2.3,0.1c-1.9,0.1-3.2,0.4-4,0.9
		s-1.2,1.3-1.2,2.4c0,0.8,0.3,1.5,0.8,1.9C204.1,55.1,204.8,55.3,205.7,55.3z"/>
	<path fill="#FFFFFF" d="M214.1,41.5h2.5l3.4,8.8c0.7,2,1.2,3.5,1.4,4.4h0.1c0.1-0.5,0.4-1.3,0.8-2.5c0.4-1.2,1.7-4.7,3.8-10.7h2.5
		L222,59.1c-0.7,1.7-1.4,3-2.3,3.7c-0.9,0.7-2,1.1-3.2,1.1c-0.7,0-1.4-0.1-2.1-0.2v-1.9c0.5,0.1,1.1,0.2,1.7,0.2
		c1.6,0,2.8-0.9,3.4-2.7l0.9-2.2L214.1,41.5z"/>
</g>
<g id="Google">
	<path fill="#FFFFFF" d="M142.3,42.9c0.7,0.6,2.3,1.9,2.3,4.4c0,2.4-1.4,3.5-2.7,4.6c-0.4,0.4-0.9,0.9-0.9,1.6
		c0,0.7,0.5,1.1,0.8,1.4l1.2,0.9c1.4,1.2,2.7,2.3,2.7,4.5c0,3-2.9,6.1-8.5,6.1c-4.7,0-7-2.2-7-4.6c0-1.2,0.6-2.8,2.5-3.9
		c2-1.2,4.7-1.4,6.2-1.5c-0.5-0.6-1-1.2-1-2.2c0-0.5,0.2-0.9,0.3-1.3c-0.4,0-0.7,0.1-1,0.1c-3.4,0-5.4-2.6-5.4-5.1
		c0-1.5,0.7-3.1,2.1-4.3c1.8-1.5,4-1.8,5.8-1.8h6.7l-2.1,1.2h-2V42.9z M140,57.3c-0.3,0-0.4,0-0.7,0s-2,0.1-3.4,0.5
		c-0.7,0.3-2.8,1-2.8,3.3s2.2,3.9,5.7,3.9c3.1,0,4.8-1.5,4.8-3.5C143.5,59.9,142.5,59,140,57.3z M141,51.1c0.7-0.7,0.8-1.8,0.8-2.4
		c0-2.3-1.4-5.9-4.1-5.9c-0.8,0-1.7,0.4-2.3,1.1c-0.5,0.7-0.7,1.6-0.7,2.4c0,2.2,1.3,5.8,4,5.8C139.6,52,140.4,51.7,141,51.1z"/>
	<path fill="#FFFFFF" d="M122,56.8c-5.1,0-7.9-4-7.9-7.6c0-4.2,3.5-7.8,8.4-7.8c4.7,0,7.7,3.7,7.7,7.6
		C130.2,52.7,127.2,56.8,122,56.8z M126,54.2c0.8-1,1-2.3,1-3.6c0-2.8-1.4-8.3-5.4-8.3c-1.1,0-2.1,0.4-2.9,1.1
		c-1.3,1.1-1.5,2.5-1.5,3.9c0,3.2,1.6,8.5,5.5,8.5C124,55.8,125.3,55.2,126,54.2z"/>
	<path fill="#FFFFFF" d="M104.5,56.8c-5.1,0-7.9-4-7.9-7.6c0-4.2,3.5-7.8,8.4-7.8c4.7,0,7.7,3.7,7.7,7.6
		C112.7,52.7,109.7,56.8,104.5,56.8z M108.5,54.2c0.8-1,1-2.3,1-3.6c0-2.8-1.4-8.3-5.4-8.3c-1.1,0-2.1,0.4-2.9,1.1
		c-1.3,1.1-1.5,2.5-1.5,3.9c0,3.2,1.6,8.5,5.5,8.5C106.5,55.8,107.8,55.2,108.5,54.2z"/>
	<path fill="#FFFFFF" d="M94.1,56.3l-4.6,1.1c-1.9,0.3-3.6,0.6-5.4,0.6c-9,0-12.4-6.6-12.4-11.7c0-6.3,4.8-12.1,13.1-12.1
		c1.8,0,3.4,0.3,5,0.7c2.4,0.7,3.6,1.5,4.3,2l-2.7,2.6l-1.1,0.3l0.8-1.3c-1.1-1.1-3.1-3-6.9-3c-5.1,0-9,3.9-9,9.6
		c0,6.1,4.4,11.8,11.5,11.8c2.1,0,3.1-0.4,4.1-0.8v-5.2l-4.9,0.3l2.6-1.4h6.9l-0.8,0.8c-0.2,0.2-0.3,0.3-0.3,0.5
		c0,0.3-0.1,1.2-0.1,1.6L94.1,56.3L94.1,56.3z"/>
	<path fill="#FFFFFF" d="M152.6,55.3c-1.1-0.1-1.3-0.3-1.3-1.6v-0.4v-18c0-0.1,0-0.1,0-0.2c0.1-1.1,0.5-1.3,1.5-1.9h-4.6l-2.4,1.2
		h2.5l0,0l0,0v19v1.1c0,0.6-0.1,0.7-0.9,1.7h5.7l1.2-0.7C153.7,55.4,153.1,55.4,152.6,55.3z"/>
	<path fill="#FFFFFF" d="M165.8,55.6c-0.4,0.2-0.7,0.4-1.1,0.6c-1.1,0.5-2.2,0.6-3.1,0.6c-1,0-2.6-0.1-4.3-1.3
		c-2.3-1.6-3.3-4.4-3.3-6.8c0-5,4.1-7.4,7.4-7.4c1.2,0,2.4,0.3,3.3,0.9c1.6,1.1,2,2.4,2.3,3.2l-7.6,3.1l-2.5,0.2
		c0.8,4.1,3.6,6.5,6.6,6.5c1.6,0,2.8-0.6,3.9-1.1L165.8,55.6z M162.8,46c0.6-0.2,0.9-0.4,0.9-0.9c0-1.3-1.5-2.8-3.2-2.8
		c-1.3,0-3.7,1-3.7,4.5c0,0.5,0.1,1.1,0.1,1.7L162.8,46z"/>
	<g>
		<path fill="#FFFFFF" d="M168.9,41.5v2.1h-0.3v-2.1h-0.7v-0.2h1.7v0.2H168.9z"/>
		<path fill="#FFFFFF" d="M171.8,43.7v-2.1l0,0l-0.7,2.1h-0.2l-0.7-2.1l0,0v2.1H170v-2.3h0.4l0.6,1.9l0,0l0.6-1.9h0.4v2.3H171.8z"/>
	</g>
</g>
<g enable-background="new    ">
	<path fill="#FFFFFF" d="M80.9,26.1c-0.7,0.2-1.9,0.5-3.1,0.5c-1.7,0-3-0.4-3.8-1.3c-0.9-0.8-1.3-2-1.3-3.4c0-3.1,2.3-4.9,5.4-4.9
		c1.2,0,2.2,0.2,2.6,0.5l-0.4,1.7c-0.5-0.2-1.2-0.4-2.2-0.4c-1.8,0-3.1,1-3.1,3c0,1.9,1.2,3.1,3,3.1c0.5,0,0.9-0.1,1-0.1v-2h-1.5
		v-1.7h3.5V26.1z"/>
	<path fill="#FFFFFF" d="M88.2,22.6h-3.5v2.2h3.9v1.7h-6v-9.4h5.8v1.7h-3.7v2h3.5V22.6z"/>
	<path fill="#FFFFFF" d="M91.9,18.9h-2.5v-1.8h7.2v1.8h-2.6v7.6h-2.1V18.9z"/>
	<path fill="#FFFFFF" d="M102.7,17.1v9.4h-2.1v-9.4H102.7z"/>
	<path fill="#FFFFFF" d="M106.4,18.9h-2.5v-1.8h7.2v1.8h-2.6v7.6h-2.1V18.9z"/>
	<path fill="#FFFFFF" d="M123.7,21.8c0,3.1-1.9,5-4.6,5c-2.8,0-4.4-2.1-4.4-4.8c0-2.8,1.8-4.9,4.6-4.9
		C122.1,17,123.7,19.2,123.7,21.8z M116.9,21.9c0,1.8,0.9,3.1,2.3,3.1c1.4,0,2.3-1.4,2.3-3.2c0-1.7-0.8-3.1-2.3-3.1
		C117.7,18.7,116.9,20,116.9,21.9z"/>
	<path fill="#FFFFFF" d="M125.1,26.6v-9.4h2.5l2,3.5c0.6,1,1.1,2.2,1.5,3.2h0c-0.1-1.2-0.2-2.5-0.2-3.9v-2.7h2v9.4h-2.2l-2-3.6
		c-0.6-1-1.2-2.2-1.6-3.3l0,0c0.1,1.2,0.1,2.6,0.1,4.1v2.8H125.1z"/>
</g>
<g id="ICON">
	<g>
		<defs>
			<path id="SVGID_1_" d="M51.4,32.8l-10.8-6.2c0,0-19.7-11.4-20.9-12.1c-1.2-0.7-2.3-0.3-2.3,1.1c0,2.3,0,24.3,0,24.3
				s0,23.7,0,24.8c0,1,0.8,1.5,1.8,0.9s21.4-12.3,21.4-12.3L51.4,47c0,0,9.2-5.3,10.4-6s1.1-1.7,0.1-2.2
				C60.8,38.2,51.4,32.8,51.4,32.8z"/>
		</defs>
		<clipPath id="SVGID_2_">
			<use xlink:href="#SVGID_1_"  overflow="visible"/>
		</clipPath>
		
			<linearGradient id="SVGID_3_" gradientUnits="userSpaceOnUse" x1="30.75" y1="66.7" x2="30.75" y2="13.5" gradientTransform="matrix(1 0 0 -1 0 80)">
			<stop  offset="0" style="stop-color:#207CB0"/>
			<stop  offset="0.3757" style="stop-color:#3CB2BF"/>
			<stop  offset="0.7961" style="stop-color:#58E9CE"/>
			<stop  offset="1" style="stop-color:#63FFD4"/>
		</linearGradient>
		<polygon clip-path="url(#SVGID_2_)" fill="url(#SVGID_3_)" points="17.3,13.3 17.3,39.9 17.3,66.5 44.2,39.9 		"/>
	</g>
	<g>
		<defs>
			<path id="SVGID_4_" d="M51.4,32.8l-10.8-6.2c0,0-19.7-11.4-20.9-12.1c-1.2-0.7-2.3-0.3-2.3,1.1c0,2.3,0,24.3,0,24.3
				s0,23.7,0,24.8c0,1,0.8,1.5,1.8,0.9s21.4-12.3,21.4-12.3L51.4,47c0,0,9.2-5.3,10.4-6s1.1-1.7,0.1-2.2
				C60.8,38.2,51.4,32.8,51.4,32.8z"/>
		</defs>
		<clipPath id="SVGID_5_">
			<use xlink:href="#SVGID_4_"  overflow="visible"/>
		</clipPath>
		
			<linearGradient id="SVGID_6_" gradientUnits="userSpaceOnUse" x1="17.3492" y1="53.5" x2="51.3525" y2="53.5" gradientTransform="matrix(1 0 0 -1 0 80)">
			<stop  offset="0" style="stop-color:#4BC3AE"/>
			<stop  offset="1" style="stop-color:#DEE999"/>
		</linearGradient>
		<polygon clip-path="url(#SVGID_5_)" fill="url(#SVGID_6_)" points="51.4,32.8 40.5,26.5 17.3,13.1 17.3,13.3 44.2,39.9 		"/>
	</g>
	<g>
		<defs>
			<path id="SVGID_7_" d="M51.4,32.8l-10.8-6.2c0,0-19.7-11.4-20.9-12.1c-1.2-0.7-2.3-0.3-2.3,1.1c0,2.3,0,24.3,0,24.3
				s0,23.7,0,24.8c0,1,0.8,1.5,1.8,0.9s21.4-12.3,21.4-12.3L51.4,47c0,0,9.2-5.3,10.4-6s1.1-1.7,0.1-2.2
				C60.8,38.2,51.4,32.8,51.4,32.8z"/>
		</defs>
		<clipPath id="SVGID_8_">
			<use xlink:href="#SVGID_7_"  overflow="visible"/>
		</clipPath>
		
			<linearGradient id="SVGID_9_" gradientUnits="userSpaceOnUse" x1="34.35" y1="40.1" x2="34.35" y2="13.3297" gradientTransform="matrix(1 0 0 -1 0 80)">
			<stop  offset="0" style="stop-color:#EC403D"/>
			<stop  offset="0.384" style="stop-color:#C93B75"/>
			<stop  offset="0.7988" style="stop-color:#A636AC"/>
			<stop  offset="1" style="stop-color:#9934C2"/>
		</linearGradient>
		<polygon clip-path="url(#SVGID_8_)" fill="url(#SVGID_9_)" points="17.3,66.5 17.3,66.7 40.5,53.3 51.4,47 44.2,39.9 		"/>
	</g>
	<g>
		<defs>
			<path id="SVGID_10_" d="M51.4,32.8l-10.8-6.2c0,0-19.7-11.4-20.9-12.1c-1.2-0.7-2.3-0.3-2.3,1.1c0,2.3,0,24.3,0,24.3
				s0,23.7,0,24.8c0,1,0.8,1.5,1.8,0.9s21.4-12.3,21.4-12.3L51.4,47c0,0,9.2-5.3,10.4-6s1.1-1.7,0.1-2.2
				C60.8,38.2,51.4,32.8,51.4,32.8z"/>
		</defs>
		<clipPath id="SVGID_11_">
			<use xlink:href="#SVGID_10_"  overflow="visible"/>
		</clipPath>
		
			<linearGradient id="SVGID_12_" gradientUnits="userSpaceOnUse" x1="53.95" y1="47.2478" x2="53.95" y2="32.9709" gradientTransform="matrix(1 0 0 -1 0 80)">
			<stop  offset="0" style="stop-color:#FF8877"/>
			<stop  offset="0.6121" style="stop-color:#FFB175"/>
			<stop  offset="1" style="stop-color:#FFC774"/>
		</linearGradient>
		<polygon clip-path="url(#SVGID_11_)" fill="url(#SVGID_12_)" points="51.4,32.8 44.2,39.9 51.4,47 63.7,39.9 		"/>
	</g>
</g>
</svg>
