<?xml version="1.0" encoding="utf-8"?>
<!-- Generator: Adobe Illustrator 19.2.0, SVG Export Plug-In . SVG Version: 6.00 Build 0)  -->
<!DOCTYPE svg PUBLIC "-//W3C//DTD SVG 1.1//EN" "http://www.w3.org/Graphics/SVG/1.1/DTD/svg11.dtd">
<svg version="1.1" id="AppStore" xmlns="http://www.w3.org/2000/svg" xmlns:xlink="http://www.w3.org/1999/xlink" x="0px" y="0px"
	 viewBox="0 0 245 80" enable-background="new 0 0 245 80" xml:space="preserve">
<path id="Button_2_" d="M8.8,0h227.4c4.9,0,8.8,3.9,8.8,8.8v62.4c0,4.9-3.9,8.8-8.8,8.8H8.8C3.9,80,0,76.1,0,71.2V8.8
	C0,3.9,3.9,0,8.8,0z"/>
<g enable-background="new    ">
	<path fill="#FFFFFF" d="M65,24.9l-1.2,3.9h-2.6l4.5-13.9h3.2l4.5,13.9h-2.7l-1.3-3.9H65z M68.9,23l-1.1-3.4
		c-0.3-0.8-0.5-1.8-0.7-2.6h0c-0.2,0.8-0.4,1.8-0.7,2.6L65.4,23H68.9z"/>
	<path fill="#FFFFFF" d="M77.2,18.8l1.6,5.1c0.3,0.9,0.5,1.7,0.7,2.5h0.1c0.2-0.8,0.4-1.6,0.7-2.5l1.6-5.1h2.7l-3.8,10h-2.5l-3.7-10
		H77.2z"/>
	<path fill="#FFFFFF" d="M94.8,26.4c0,0.9,0,1.8,0.1,2.4h-2.3l-0.2-1.1h-0.1c-0.6,0.8-1.7,1.3-3,1.3c-2,0-3.2-1.5-3.2-3
		c0-2.5,2.2-3.8,6-3.8v-0.2c0-0.7-0.3-1.8-2-1.8c-1,0-2,0.3-2.7,0.7L87,19.4c0.7-0.5,2-0.9,3.6-0.9c3.2,0,4.1,2,4.1,4.2V26.4z
		 M92.3,23.9c-1.8,0-3.5,0.4-3.5,1.9c0,1,0.6,1.4,1.4,1.4c1,0,1.8-0.7,2-1.4c0.1-0.2,0.1-0.4,0.1-0.6V23.9z"/>
	<path fill="#FFFFFF" d="M101.1,16c0,0.8-0.6,1.4-1.4,1.4c-0.8,0-1.4-0.6-1.4-1.4c0-0.8,0.6-1.4,1.4-1.4
		C100.6,14.6,101.1,15.2,101.1,16z M98.4,28.8v-10h2.6v10H98.4z"/>
	<path fill="#FFFFFF" d="M104.7,14.2h2.6v14.6h-2.6V14.2z"/>
	<path fill="#FFFFFF" d="M118.8,26.4c0,0.9,0,1.8,0.1,2.4h-2.3l-0.2-1.1h-0.1c-0.6,0.8-1.7,1.3-3,1.3c-2,0-3.2-1.5-3.2-3
		c0-2.5,2.2-3.8,6-3.8v-0.2c0-0.7-0.3-1.8-2-1.8c-1,0-2,0.3-2.7,0.7l-0.5-1.7c0.7-0.5,2-0.9,3.6-0.9c3.2,0,4.1,2,4.1,4.2V26.4z
		 M116.3,23.9c-1.8,0-3.5,0.4-3.5,1.9c0,1,0.6,1.4,1.4,1.4c1,0,1.8-0.7,2-1.4c0.1-0.2,0.1-0.4,0.1-0.6V23.9z"/>
	<path fill="#FFFFFF" d="M122.5,14.2h2.5v6h0c0.6-1,1.7-1.6,3.2-1.6c2.5,0,4.2,2,4.2,5.1c0,3.6-2.3,5.4-4.6,5.4
		c-1.3,0-2.5-0.5-3.2-1.7h0l-0.1,1.5h-2.2c0-0.7,0.1-1.8,0.1-2.8V14.2z M125,24.7c0,0.2,0,0.4,0.1,0.6c0.3,1,1.2,1.8,2.2,1.8
		c1.6,0,2.6-1.3,2.6-3.3c0-1.8-0.8-3.2-2.5-3.2c-1,0-2,0.7-2.2,1.9c0,0.2-0.1,0.4-0.1,0.7V24.7z"/>
	<path fill="#FFFFFF" d="M135.5,14.2h2.6v14.6h-2.6V14.2z"/>
	<path fill="#FFFFFF" d="M143.6,24.5c0.1,1.8,1.5,2.6,3.1,2.6c1.2,0,2-0.2,2.8-0.5l0.4,1.8c-0.9,0.4-2.1,0.6-3.5,0.6
		c-3.3,0-5.2-2-5.2-5.1c0-2.8,1.7-5.4,4.9-5.4c3.3,0,4.3,2.7,4.3,4.9c0,0.5,0,0.8-0.1,1.1H143.6z M148,22.7c0-0.9-0.4-2.5-2.1-2.5
		c-1.6,0-2.2,1.4-2.3,2.5H148z"/>
	<path fill="#FFFFFF" d="M168.3,23.7c0,3.7-2.6,5.3-5.2,5.3c-2.8,0-5-2-5-5.2c0-3.3,2.2-5.3,5.2-5.3
		C166.3,18.5,168.3,20.7,168.3,23.7z M160.7,23.8c0,1.9,0.9,3.4,2.5,3.4c1.4,0,2.5-1.4,2.5-3.4c0-1.6-0.7-3.4-2.4-3.4
		C161.4,20.4,160.7,22.1,160.7,23.8z"/>
	<path fill="#FFFFFF" d="M171.3,21.8c0-1.2,0-2.1-0.1-3h2.2l0.1,1.5h0.1c0.4-0.8,1.5-1.7,3.2-1.7c1.8,0,3.6,1.1,3.6,4.3v6h-2.5v-5.7
		c0-1.4-0.5-2.5-1.9-2.5c-1,0-1.7,0.7-2,1.5c-0.1,0.2-0.1,0.5-0.1,0.8v5.9h-2.6V21.8z"/>
	<path fill="#FFFFFF" d="M192.3,16.2v2.6h2.4v1.9h-2.4v4.4c0,1.2,0.3,1.9,1.3,1.9c0.5,0,0.7,0,1-0.1l0,1.9c-0.4,0.1-1,0.3-1.8,0.3
		c-0.9,0-1.7-0.3-2.2-0.8c-0.5-0.6-0.8-1.5-0.8-2.8v-4.7h-1.4v-1.9h1.4v-1.9L192.3,16.2z"/>
	<path fill="#FFFFFF" d="M197.6,14.2h2.6v6h0c0.3-0.5,0.7-0.9,1.3-1.2c0.5-0.3,1.1-0.5,1.7-0.5c1.7,0,3.5,1.1,3.5,4.4v5.9h-2.5v-5.6
		c0-1.5-0.5-2.6-1.9-2.6c-1,0-1.7,0.7-2,1.4c-0.1,0.2-0.1,0.5-0.1,0.8v6h-2.6V14.2z"/>
	<path fill="#FFFFFF" d="M212.2,24.5c0.1,1.8,1.5,2.6,3.1,2.6c1.2,0,2-0.2,2.8-0.5l0.4,1.8c-0.9,0.4-2.1,0.6-3.5,0.6
		c-3.3,0-5.2-2-5.2-5.1c0-2.8,1.7-5.4,4.9-5.4c3.3,0,4.3,2.7,4.3,4.9c0,0.5,0,0.8-0.1,1.1H212.2z M216.6,22.7c0-0.9-0.4-2.5-2.1-2.5
		c-1.6,0-2.2,1.4-2.3,2.5H216.6z"/>
</g>
<g enable-background="new    ">
	<path fill="#FFFFFF" d="M69.1,54l-2.4,7.7h-5.2l8.8-27.3h6.4l8.9,27.3h-5.4L77.7,54H69.1z M76.9,50.2l-2.1-6.7
		c-0.5-1.7-1-3.5-1.4-5.1h-0.1c-0.4,1.6-0.8,3.5-1.3,5.1l-2.1,6.7H76.9z"/>
	<path fill="#FFFFFF" d="M89,48.5c0-2.6-0.1-4.7-0.2-6.6h4.4l0.2,3h0.1c1.5-2.2,3.8-3.5,6.8-3.5c4.5,0,8.3,3.9,8.3,10.1
		c0,7.1-4.5,10.6-9,10.6c-2.5,0-4.5-1.1-5.6-2.6H94v10.2h-5V48.5z M94,53.5c0,0.5,0,0.9,0.2,1.4c0.5,2,2.3,3.5,4.4,3.5
		c3.2,0,5-2.6,5-6.5c0-3.5-1.7-6.3-4.9-6.3c-2.1,0-4,1.5-4.5,3.7C94,49.6,94,50,94,50.4V53.5z"/>
	<path fill="#FFFFFF" d="M112.7,48.5c0-2.6-0.1-4.7-0.2-6.6h4.4l0.2,3h0.1c1.5-2.2,3.8-3.5,6.8-3.5c4.5,0,8.3,3.9,8.3,10.1
		c0,7.1-4.5,10.6-9,10.6c-2.5,0-4.5-1.1-5.6-2.6h-0.1v10.2h-5V48.5z M117.7,53.5c0,0.5,0,0.9,0.2,1.4c0.5,2,2.3,3.5,4.4,3.5
		c3.2,0,5-2.6,5-6.5c0-3.5-1.7-6.3-4.9-6.3c-2.1,0-4,1.5-4.5,3.7c-0.1,0.4-0.2,0.9-0.2,1.3V53.5z"/>
	<path fill="#FFFFFF" d="M144.9,56.3c1.6,0.9,4.1,1.7,6.6,1.7c3.2,0,5-1.5,5-3.7c0-2.1-1.4-3.3-4.9-4.5c-4.5-1.6-7.4-4-7.4-7.9
		c0-4.5,3.7-7.9,9.7-7.9c3,0,5.2,0.6,6.6,1.4l-1.2,4c-1-0.5-2.9-1.3-5.4-1.3c-3.2,0-4.5,1.7-4.5,3.3c0,2.1,1.6,3.1,5.2,4.5
		c4.7,1.8,7.1,4.2,7.1,8.1c0,4.4-3.3,8.2-10.4,8.2c-2.9,0-5.9-0.9-7.4-1.7L144.9,56.3z"/>
	<path fill="#FFFFFF" d="M171.4,36.9V42h4.7v3.7h-4.7v8.7c0,2.4,0.6,3.7,2.6,3.7c0.9,0,1.4-0.1,1.9-0.2l0.1,3.8
		c-0.7,0.3-2,0.5-3.6,0.5c-1.8,0-3.4-0.6-4.3-1.7c-1.1-1.1-1.5-2.9-1.5-5.5v-9.3h-2.8V42h2.8v-3.7L171.4,36.9z"/>
	<path fill="#FFFFFF" d="M198.5,51.7c0,7.3-5.1,10.5-10.1,10.5c-5.6,0-9.9-3.9-9.9-10.2c0-6.5,4.3-10.5,10.2-10.5
		C194.5,41.5,198.5,45.7,198.5,51.7z M183.6,51.9c0,3.8,1.9,6.7,4.9,6.7c2.8,0,4.8-2.8,4.8-6.8c0-3.1-1.4-6.6-4.8-6.6
		C185,45.2,183.6,48.6,183.6,51.9z"/>
	<path fill="#FFFFFF" d="M202.6,48.3c0-2.7,0-4.6-0.2-6.4h4.3l0.2,3.8h0.2c1-2.8,3.3-4.2,5.4-4.2c0.5,0,0.8,0,1.2,0.1v4.7
		c-0.4-0.1-0.9-0.2-1.5-0.2c-2.4,0-4,1.5-4.5,3.8c-0.1,0.4-0.2,1-0.2,1.5v10.2h-5V48.3z"/>
	<path fill="#FFFFFF" d="M220.2,53.3c0.1,3.6,2.9,5.1,6.1,5.1c2.3,0,4-0.3,5.5-0.9l0.7,3.4c-1.7,0.7-4.1,1.3-6.9,1.3
		c-6.4,0-10.2-4-10.2-10c0-5.5,3.3-10.6,9.7-10.6c6.4,0,8.5,5.3,8.5,9.6c0,0.9-0.1,1.7-0.2,2.1H220.2z M228.9,49.8
		c0-1.8-0.8-4.8-4.1-4.8c-3.1,0-4.4,2.8-4.6,4.8H228.9z"/>
</g>
<path id="iPhone" fill="#FFFFFF" d="M43.3,12.4H22.8c-2.7,0-4.9,2.2-4.9,4.9v45.4c0,2.7,2.2,4.9,4.9,4.9h20.5c2.7,0,4.9-2.2,4.9-4.9
	V17.3C48.2,14.6,46,12.4,43.3,12.4z M30.8,17.2h4.5c0.4,0,0.7,0.3,0.7,0.7s-0.3,0.7-0.7,0.7h-4.5c-0.4,0-0.7-0.3-0.7-0.7
	S30.4,17.2,30.8,17.2z M33.1,65.1c-1.5,0-2.6-1.2-2.6-2.6c0-1.5,1.2-2.6,2.6-2.6c1.4,0,2.6,1.2,2.6,2.6C35.7,64,34.5,65.1,33.1,65.1
	z M45.7,58.6H20.4V21.4h25.3C45.7,21.4,45.7,58.6,45.7,58.6z"/>
</svg>
