<?xml version="1.0" encoding="utf-8"?>
<!-- Generator: Adobe Illustrator 19.2.0, SVG Export Plug-In . SVG Version: 6.00 Build 0)  -->
<!DOCTYPE svg PUBLIC "-//W3C//DTD SVG 1.1//EN" "http://www.w3.org/Graphics/SVG/1.1/DTD/svg11.dtd">
<svg version="1.1" id="Ebene_1" xmlns="http://www.w3.org/2000/svg" xmlns:xlink="http://www.w3.org/1999/xlink" x="0px" y="0px"
	 viewBox="0 0 800 600" enable-background="new 0 0 800 600" xml:space="preserve">
<g>
	<path fill="#FFFFFF" d="M198.5,325.2c0.4-0.1,0.7-0.3,0.9-0.7c-0.8-2.1-1.5-5.1-4-5.8c-4.1-1.2-8.7-1.4-12.9-1.4
		c-2.1-0.9-3.3-2.3-4.3-4.3c0-1,0-2.1,0-3.3c3.7-5.7,18.5-12.2,11.5-20.1c-2.9-3.3-8.7-3.2-12.5-4.6c-2.4-0.9-4.9-3.5-4.7-6.3
		c0-0.6,0-1.2,0-1.7c-0.8-6.4,12.6-4.5,15.3-8.8c1.6-2.5,2.3-5.6,0.3-8.1c-4-5.1-11.7-5.8-15.1-11.5c-0.7-1.3-0.6-3.9,0-5.2
		c2.9-5.8,10.4-2.1,15.1-4.9c1.2-0.7,2.2-1.6,2.6-3.1c0.2-0.7,0.5-1.4,0.7-2.1c-1.2-6.7-7.8-9-11.6-13.8c-3.2-4.2-0.7-9.4,4.3-10.6
		c3.7-0.9,7.6,0,11.1-1.4c0.9-0.4,1.8-1.3,2.4-2.2c1.6-2.5,1.1-4.8-0.7-6.9c-3.4-3.9-13.9-11.3-7.7-17.1c4-3.8,8.5-3.2,13.8-2.8
		c3.3,0.2,5.4-1.4,6.9-4.1c1.7-3,1-5.2-0.8-7.6c-2.9-3.9-5.5-7.2-7-11.8c0.1-0.6,0.3-1.2,0.5-1.8c0.8-3.1,3.5-5,6.8-5.1
		c4.8-0.1,9.1,2.5,14,2.5c0.9-0.8,1.9-1.5,2.7-2.5c1.2-1.5,2-3.2,1.8-5.1c-0.2-3.5-3.5-7.3-5.1-10.2c0-1.2,0.1-2.6,0-4
		c-0.2-2.6,0.8-4.5,2.4-6.1c6.2-1.6,10.8,2.3,16.7,3.2c2.6,0.4,5.5-0.8,6.4-4c1.3-5.2-2.7-9.6-4-14.4c-0.2-0.9,0-2.1,0.4-2.8
		c1.4-2.6,4.3-5.1,7.8-4.2c3.8,0.9,7.3,3.2,10.7,4.9c2.2,1.2,4.8,0.7,6.8-0.8c1.4-1.1,2.3-2.5,3.4-3.9c0-5.1-3.2-10.4-2.5-15.3
		c0.4-2.4,1.9-3.8,3.7-5c7.6-5.1,17.5,15.2,25,4.5c2.5-3.5,0.3-8.1,0.2-11.8c0-3.2,1.4-5.3,4-7c1.5-1,3.1-1.6,5-1.1
		c3.8,2.6,4.2,7.5,7.5,10.4c1.4,1.3,2.9,1.4,4.8,1.8c3.9-0.7,5.7-3.5,6.9-7c1.4-4.3,2.4-12.4,6.9-14.6c0.9,0,2.1,0,3.2,0
		c8.6,5,11.5,18.8,22.7,10.2c1.5-4,0.8-8.9,3.2-12.5c0.7-1.1,2-2.1,3-3c0.8,0,1.9,0,3.2,0c4.2,4.4,6.8,8.9,9.8,14.1
		c1.2,2.1,4.8,3.2,7.3,2.2c1.4-0.6,2.8-1.3,4.2-1.9c2.7-5.1,4.3-10.2,8.4-14.4c1.2,0,2.1,0,3.4,0c0.8,0.7,1.8,1.5,2.8,2.4
		c3.2,2.9,1.9,7.9,4.2,11.3c0.6,0.9,1.3,1.8,2.3,2.4c1.7,1.2,3.5,1.9,5.6,2.3c6.9-0.4,11.4-10.7,16.2-14.6c2.1,0.7,3.6,1.7,4.7,3.5
		c1.9,3.3,1,6.2,1.4,9.8c0.5,4,2.1,5.5,5.2,7.8c1,0,2.1,0,3.3,0c4.2-2.6,7.5-6.6,11.4-9.6s8.8,1.2,10.4,4.7c1.3,2.7,0.3,6.4-0.1,9.2
		c-0.3,2.2,0.2,4.2,1.4,5.9c0.7,0.9,1.9,1.5,2.9,2.3c0.2,0,0.7,0,1,0.2c2.5,0.9,4.5,0,6.4-1.4c2.4-1.8,4.8-3.8,7.4-5.4
		c2-1.2,4.2-2.1,6.8-1.1c2,0.7,3,3,4.1,4.7c0,5.5-1.6,10.4-1.5,15.9c1.5,3,5.4,5.7,8.9,4.3c2.6-1,4.7-2.9,7.2-4.1
		c2-0.9,4.2-1.6,6.5-0.9c1.4,0.4,2.6,1,3.8,1.5c7.1,2.7-0.9,15.3-0.3,19.9c0.4,3.4,4.5,5,7.6,4.7c2.9-0.3,5.5-2.7,8.2-3.7
		c1.7-0.6,3.4-1,5.3-0.4c1.4,0.5,2.3,1.3,2.4,2.6c0.7,7.4-4.2,12.5-4.7,19.5c1.7,2.3,2.9,3.9,5.5,5.2c5.5,2.8,11.2-3.4,16.6-0.4
		c1.6,0.9,2.8,2.2,3.6,3.9c0.3,0.7,0.5,1.4,0.7,2.2c-2.9,5.9-7.5,11-8.8,17.5c4.6,10.2,14,0.9,21.3,6.3c1.4,1,1.5,2.8,1.2,4.3
		c-1.4,6.2-11.8,11.4-10.8,18c0.2,1.3,0.6,2.4,1.5,3.4c1.4,1.6,3.3,2.5,5.3,3.6c1.5-0.2,3.3-0.6,4.9-0.7c2.2-0.2,5.1-0.1,8.5,2.6
		c0.2,2.7,0.1,5.1-1.7,7.6c-3.7,5-9.3,7.6-12,13.5c0.3,2.6,1.7,4.5,3.6,6c4.6,3.7,11.1,1.2,15.4,5.9c0.5,0.6,0.8,1.4,1.1,2.2
		c0.9,2.9-3.7,7.2-5.8,8.4c-2.9,1.7-6.2,3.2-8.8,5.4c-1,0.8-1.6,2.4-2.1,3.5c-0.1,1.8,0.6,3.3,1.4,4.8c1.9,3.6,8.1,3.6,11.2,5.8
		c1.1,0.8,2.1,1.8,3,2.8c0.8,1,0.5,2.2,0.2,3.4c-0.9,3.7-3.7,5.3-7.1,6c-2,0.4-4,0.7-5.9,1.6c-2.3,1-3.7,2.7-4.6,5
		c-0.7,1.7-0.8,3.4,0.4,4.9c0.3,0.4,0.5,0.8,0.7,1.3c4.1,1.8,10,5.8,11.7,10.1c0.7,1.6,1.3,3.4,0.4,5.2c-2.6,5.5-7.8,4.2-12.9,4
		c-2.7-0.1-4.8,0.9-6.2,3.1c-0.8,1.3-1.4,2.7-2,4c-1.1,2.4,3.1,6.5,4.7,7.8c16.2-4.8,32.5-8.4,49.3-5.4c15.6,2.8,33.7,9,40.8,24.7
		c0.6,1.3,1.4,2.8,0.9,4.5c-8.1,27.1-13.8,55-21.1,82.3c-0.2,0.8-0.5,1.6-1.6,1.8c-1.5-1.6-2.3-4.9-3.6-7c-2.2-3.5-4.7-6.8-7.6-9.7
		c-5.5-5.3-12.2-8.2-19.8-8.3c-15.7-0.2-31.1,3-45.9,7.8c-27.6,9-54.4,20.1-82.1,28.8c0,8.2,3.5,17.5,5.1,25.6
		c2.1,10.5,6.7,19.7,9.5,29.9c0.7,2.6-0.3,4.4-2.7,5.8c-23.7,14.2-51,27.8-79.1,29.5c-0.6,0-1,0.5-1.5,1c-12.4,0-24.7,0-37.2,0
		c-0.5-0.9-1.4-1-2.4-1.1c-12.2-0.5-24.4-2.8-36.4-5.2c-9.5-1.9-23.1-4-31.2-9.6c-1.6-1.1-1.8-1.8-1.3-3.2c1.8-6,1-13.6,1.3-19.8
		c0.3-5.6,1.3-11.2,1.4-16.9c0.1-5.9,0.9-11.6,1.5-17.3c0.7-6.1,0.1-12.2,0.8-18.2c-30.1-8.7-58.2-22.3-87.6-33
		c-14.2-5.1-28.1-7.9-43.2-5c-7.1,1.4-14.5,3.6-19.9,8.5c-6.4,5.8-7.6,13.1-11.2,20.4c-2.5-0.9-2.8-6.6-3.3-8.6c-1-3.8-2-7.6-3-11.5
		c-2.1-8.2-4.5-16.3-6.7-24.4c-2-7.7-4.3-15.3-6.3-23c-0.8-3.2-6.9-17.5-4.6-20.2C146.3,335.1,170.7,320.1,198.5,325.2
		C198.4,325.3,197.2,325,198.5,325.2z M493.6,207.2c1.2-0.3,2.1-0.1,2.8,1c3.6,5.6,7.7,9.8,10.1,16.4c2.5,6.6,3.9,13.5,5,20.5
		c1,6.6,1.7,13.3,3.1,19.9c1.4,6.9,2.7,13,0.6,19.9c-3.6,11.8-9.7,23.4-14.5,34.7c-2.6,6-4.2,15.1-8.2,20.1c-2.1,2.6-5.6,4.2-8.3,6
		c-3.7,2.5-7.3,5.1-10.9,7.6c-0.1,4,0.2,8-0.2,12.1c6.8-0.6,14.1-4.2,20.7-6.1s13.1-4.1,19.6-6.2c4.4-3.4,7.5-9.4,10.4-14.1
		c3.2-5.1,5.9-10.4,8.5-15.9c5.6-11.7,9.3-23.9,11.8-36.6c4.8-24.6,3.9-49.8-2.6-74c-13.2-49.3-52.7-92.7-101.6-108.7
		c-45.1-14.8-94.1-11.5-135.5,12.7c-45.2,26.5-79,78.1-79.5,131.2c-0.1,15.4,0.7,30.4,4.2,45.5c1.6,7,4,13.8,6.6,20.4
		c2.5,6.4,5.3,16.8,10.4,21.6c4.1,3.8,12.2,5.3,17.4,7.3c6.2,2.3,12,5.4,18.1,7.9c6,2.5,12.1,4.8,18.1,7.4c3.4,1.4,6.9,2.7,10.4,4
		c2.8,1,8,1.9,10,4.2c0.9-0.3,1.1-0.9,1-1.5c-0.2-3.6,0-7.8,0.9-11.3c-1.1-1.7-5.9-8.3-7.6-9.3c-2.4,0.7-4.2-1.6-6.9-1.2
		c-4.5-5.6-8-11.9-12.5-17.5c-5.2-6.5-10.3-13-15.5-19.4c-10-12.3-20.2-22.8-20.1-39.4c0-13.1,2.5-25.7,5.3-38.5
		c1.6-7.3,3.2-14.6,4.7-21.9c0.7-3.1,1.1-6.2,1.6-9.4c0.4-2.8,0.5-7.7,2.2-9.8c3.1-3.8,7.6-5.4,11.9-7.1c2.6-1.1,8.8-5.8,11.2-4.8
		c5.1,2,12,1.7,17.4,3.1c6.6,1.7,12.7,4.1,19.5,4.8c7.8,0.8,15.6,2.9,23.1,5c2.8,0.7,19.5,3.6,18,7c-5.4,12.4-2.1,25.2-14.3,33.9
		c-1.1,15.2-0.8,29.6,4.1,44.2c2.1,6.3,8,11.2,12.4,16.3c5,5.8,9.7,11.8,14.8,17.7c-0.2,3.7,4.1,19.4,0.1,21.5
		c-4.3,0.9-8.5,1-12.8,0.6c-1.6-4.4-1.9-9-1.6-13.3c-14.2-19.2-27.6-38.1-49-49.9c-4.2-2.3-8.7,11.3-14.6,11c-2-1.6-5.6-5.8-8.5-5.6
		c-0.7-1.1-0.8-1.2-0.4-1.9c2.1-4.1,5.4-7.7,7.2-11.9c0.9-2,1.6-4.1,1-6.3c-0.5-1.8-1.1-3.4-1.4-5.2c4.9-1.8,9.9-2.1,15-3.1
		c0.7-0.1,1.4-0.1,1.8,0.4c0.6,1.3-0.6,1.8-0.7,2.7c0.2,0.7,0.6,1.3,0.7,2c1.1,4.4,7.1,4.9,10.3,2.4c6.4-5.2,3.7-11.8,6.6-18.4
		c-3.4,0.7-6.5,2.5-9.8,3.6c-4.3,1.5-9,2.7-13.5,3.5c-9.5,1.6-18.6,0.8-26.7-4.7c0-0.3-0.3-0.7-0.2-1.1c0.3-3,3-12.3,6-13.2
		c2.9,1,5.8,2.4,8.6,3.7c1.7,0.8,5.6,3.9,7.6,3c5.9-2.4,11.5-5.4,17.3-7.9c2.5-1.1,4.9-2.3,7.6-3c3.2-0.9,6.9-0.7,9.7-2.5
		c1-0.6,2.1-1.3,2.6-2.2c0.9-1.4,1.5-2.9,1.5-4.9c-7.1-6-20.6-7.3-29.5-9c-11.4-2.2-26.8-9.7-37.8-2.7c-1.5,0.9-3,1.9-3.9,3.6
		c0.8,5.1-1.1,11.5-2.1,16.5c-1.2,6.2-2.4,12.4-3.6,18.6c-2.2,12.1-6.1,23.8-5.5,36.2c0.5,9.2,8.5,16.6,14.2,23.1
		c6.5,7.3,12.2,15.2,17.8,23.2c11.4,16.4,21.6,33.6,33.2,49.9c1.4,2.1,0.9,3.7,1.2,6c20.6,3.3,40.7,8.3,61.8,6.9
		c22.2-1.6,43.6-5.9,65.3-11.3c0.2-0.7,0-1.4-0.4-2c-0.1-1.8-0.3-3.7-0.3-5.5c0-0.7,0.1-1.4-0.8-1.8c-4.2,4.5-10.4,7.7-15.3,11.4
		c-0.5,0.4-1,0.7-1.6,0.3c-0.7-0.3-0.7-0.9-0.5-1.5c8-8.7,15.5-17.4,24.5-25.2c4.2-3.6,5.1-8.2,6.9-13.3c2.1-6,4.7-11.8,7-17.7
		c2.1-5.4,4.3-10.8,6.6-16.1c2.1-5,5.2-10.4,5.3-15.9c0.3-11.1-1.1-22.2-1.9-33.2c-0.7-0.3-1.1-0.5-1.5-0.7
		c-6.6,2.8-13.2,7.4-20.7,7c-1.9-0.1-3.8-0.3-5.5-1.2c-2.5-5.5,0.5-16.3,1.3-22.2c0.6-0.3,1.2-0.8,1.7-0.9c4.1,0,7,0.7,10.8,2
		c2.8,0.9,6.8,2.7,9.1-0.3c-1.4-5.3-5-9.6-7-14.5c-0.4-1-0.6-1.9-0.2-3C488.1,211.6,491.1,209.7,493.6,207.2
		C494.8,206.9,491.1,209.7,493.6,207.2z M336.6,476.8l-0.1,0.1c-1.1,11.3-1.7,23.4-1.4,34.7c0.1,4.5,8.6,9.3,11.9,11.1
		c6.6,3.7,13.2,4,20.5,4c14.6-0.1,29.7,0.7,44.2-0.7c6.5-0.6,13.2-0.5,19.8-0.9c6.6-0.5,11.8-3,17.8-5.6c11.7-5.1,25.1-9.2,35-17.6
		c0.8-0.7,1.1-3.1,1.2-3.8c-1.4-7.1-2.2-14.3-4-21.5s-3.3-14.1-3.8-21.5c0-0.3-0.4-0.6-0.5-0.7c-46.2,11.5-93.1,14.3-139.7,3.7
		C335.5,463.4,336.4,471.2,336.6,476.8C336.6,476.8,336.5,474.8,336.6,476.8z M478.1,427.2c-1.4-6.4-2.6-13-4.6-19.2
		c-0.7-2.1-2.1-3.8-4-4.9c-2.6-1.6-5.5-1.1-8.2-0.2c-2.7,1-5.2,2.7-5.9,5.8c-2.6,0.2-3.6-2-6.1-2.1c-2.8-0.1-5.7-0.3-8.3,1.4
		c-1.4,0.9-2.9,4-4.4,4.2c-1.4-0.5,0.1-2.7-1.9-2.8c-2.3,1.7-5.4,1.3-7.9,2.3c-1.1,2.1,4.8,26,6.2,26.4c2.1-0.5,9.3-0.7,8.6-3.9
		c-0.9-3.7-5.4-14.3-2.6-17.7c0.7-0.8,1.5-1.4,2.1-1.9c3,0,3.4,0,4.8,2c3.5,4.9,2.1,12.1,5,17.3c2.6-0.6,4.8-1.2,7.2-1.6
		c0.8-0.1,1.4-0.5,1.8-1.4c-1.1-4.1-6.3-16.7-1.5-19.6c0.5-0.3,1-0.6,1.5-0.9c0.6,0,1.2,0,1.7,0c2.4,1,3.5,2.9,4,5.1
		c1.2,4.6,1.9,9.4,3.3,14c2.7-0.1,5.2-0.8,7.8-1.4C477.2,428,477.6,427.5,478.1,427.2C477.4,424.2,477.6,427.5,478.1,427.2z
		 M532.3,410c3.2,0,5.6,0.1,8.6-1.2c1.7-0.7,3.3-1.7,4.4-3.2c1-1.3,1.9-2.7,2.4-4.2c1.7-5.5,0.5-11.2-3.3-15.6
		c-1.8-2.1-4.1-3.3-6.5-4.1c-6.6-2.1-10.4,1.8-14.8,5.6c-0.4-1-0.7-1.7-1.1-2.5c-2.7,1-6.6,1.3-8.9,2.9c4.9,12.5,6,26.7,11.4,39
		c3-1.2,6.2-1.6,9.7-2.9c-2.1-1.4-5.6-13.2-4.3-14.7C530.6,408.3,531.8,409.6,532.3,410C533.5,410,532,409.7,532.3,410z
		 M492.6,393.7c-3.1,0.7-5.4,1-8.1,2.8c-1.2,0.8-2.2,2-3,3.3c-2.6,4-2.9,9.1-1.2,13.6c0.7,1.9,1.9,3.4,3.1,4.8
		c1,1.2,2.6,2.1,4.1,2.8c1.9,1,4,1.5,6.2,1.5c1.3,0,2.5-0.4,3.7-0.7c2.8-0.7,5.1-2,6.2-5c0.5,0,1,0,1.4,0.1c0.3,0.6,0.6,1,0.9,1.4
		c3-1,6-1.9,9-2.8c-2.8-8.7-5.6-17.1-8.3-25.8c-2.8,0.9-5.5,1.7-8.3,2.6c-0.4,0.7-0.8,1.5-1.3,2.4
		C495.6,394.4,494.1,394,492.6,393.7C491.9,393.8,494.1,394,492.6,393.7z M383.1,438.2c0.5-4.1,0.6-8,0.9-12.1
		c0.2-3.5-0.2-9.4,1.6-12.5c-0.2-0.7-0.4-1.4-0.7-1.9c-1.8,0.2-6.4,0-8-0.7c-1.2,0.1-1,1.3-1.6,2.1c-2-0.6-3.3-2.2-5.4-2.9
		c-3.2-1.1-6.4-0.9-9.6,0.6c-2.5,1.2-4.8,2.6-6,5.1c-2.2,4.6-3.5,9.7-0.9,14.5c1.1,2.1,2.2,4.1,4.3,5.5c3,1.9,6.7,3,10.2,2.4
		c1.9-0.3,3.2-1.8,5-2.3c0.3,0.2,0.6,0.4,0.9,0.5c0,0.6,0,1.1,0,1.6C376.5,438.8,380.6,438.9,383.1,438.2
		C383.3,437,382.9,438.3,383.1,438.2z M552.2,384.4c0.7,2,1.4,4,2,5.5c3.6,2.8,7.4,2.5,11.1,2.5c0.6,0.5,1.1,0.9,1.6,1.4
		c0.2,1.9-0.5,2.9-2.3,3.2c-3.2,0.5-5.2-0.2-8.2-1.1c-0.2,0.2-0.4,0.3-0.5,0.4c-0.7,2-1.8,4.2-1.8,6.2c0.4,0.8,1.3,1,2,1
		c3.4-0.1,7.1,1.3,10.4,0c3-1.1,6.2-2.1,8.3-5c1.7-2.5,1.1-6.3,1.1-9.2c-1.1-1.1-2.3-2.3-3.6-3.6c-2,0.1-10.3,0.3-10.5-2.6
		c1.5-1,3-2.7,4.9-2.5c1,0.1,2,0.3,3.2,0.5c1.1-1.8,1.4-4,2.4-6.2c-5.4-1.2-16.3-0.8-18.6,5.6C553.2,381.8,552.7,383,552.2,384.4
		C552.9,386.3,552.7,383,552.2,384.4z M401.7,394.9c-2.6,0.4-5.2,0.3-7.7,0.1c-1.2-0.1-1.8,0.7-1.7,1.9c0.2,7.3-0.2,14.6-0.2,22
		c0,6.3-1.6,13.2-0.4,19.6c2.2,0.8,5.8,0.2,8.2,0.2c0.9,0,1.2-0.5,1.2-1.5c0-6.9-0.1-14,0.2-21C401.5,409.3,402.9,401.7,401.7,394.9
		C399,395.3,401.7,395.2,401.7,394.9z M297.2,394.5c-1-0.4-1.9-0.7-2.8-1.1c-1,2.4-1.8,4.6-2.8,7c0.8,0.3,1.7,0.6,2.7,0.9
		c-1,6.3-4.5,12.5-6.9,18.4c2.9,1.1,5.6,2.2,8.6,3.4c4-5.1,3.5-13.5,8.2-18.1c1.5,0.7,2.8,1.4,4.1,2.1c1.7-2.1,2.1-4.7,3.5-7
		c-1.8-0.7-3.4-1.3-5.2-2c0-2.5,2-5.5,2.9-7.8c-2.3-0.8-6.3-3.3-8.9-3.2C299.1,389.2,298.7,392,297.2,394.5
		C296.2,394.1,298.7,392,297.2,394.5z M349.3,408.9c-1.4-0.7-2.8-1.7-4.3-2.1c-3.1-0.8-6.3-0.8-9.5,0c-2.5,0.6-4.7,2-6.4,3.8
		c-1.9,2-3.1,4.4-3.6,7.2c-0.6,2.9-0.4,5.8,0.8,8.5c1.5,3.4,4.1,6,7.7,7.4c2.9,1.1,5.8,1.5,8.9,1.1c0.9-0.1,1.6-0.6,1.9-1.1
		c0.1-1.7,1.4-5.3,0.9-6.9c-4.7,3-12.3-1.3-10.5-8.1c2.7-4.7,6.1-5.8,10.5-3.8c0.7,0.5,0.9,1.4,1.9,1.7
		C348.3,414.1,349,411.6,349.3,408.9C347.9,408.2,349.2,409.9,349.3,408.9z M245.3,393.5c-2.5,0.9-4.5,1.9-7,0.5
		c-1.8-1-3.9-2.2-3.9-4.8c-0.8-1.1-0.3-2.1,0-3.2c0.6-2.3,2.2-3.6,4-4.7c3-1.9,5.9,0.6,8.4,2c0.2-2.7,0.5-5.2,0.7-7.9
		c-5.1-2.5-10.8-3-16-0.3c-3,1.5-5,4.2-6.3,7.3c-1,2.3-0.8,8.3-0.1,10.5c0.9,2.8,2.8,4.9,5.3,6.4c2.1,1.3,4.4,2,6.9,2.6
		c2.4,0.5,4.4-0.2,6.8-0.4C244.4,398.8,244.8,396.2,245.3,393.5C244.8,393.7,244.8,396.2,245.3,393.5z M277.8,385
		c-1.3-1-2.9-1-4.2-1.4c-2.9-0.7-5.5,0.6-8.2,1.9c0.5-1.4,1-2.6,1.5-4c-2.4-1.6-5.3-2.1-7.9-3.4c-0.3-0.1-0.7,0-1,0
		c-3.3,8.4-6.6,16.7-9.8,25c2.3,0.9,4.9,1.7,7.1,3c0.7,0.4,1.3,0.5,2,0c2.4-4.4,3.5-15.6,10.3-15.8c2.7,0,4.7,1.4,6.8,2.9
		C275.4,390.4,276,387.6,277.8,385C276.5,384,276,387.6,277.8,385z M278.5,416.7c4.9-7.8,7.3-17.1,12.1-25c-2.2-1.7-6.2-3.5-9-4
		c-2.2,4.3-3.9,8.8-6,13.2c-0.8,1.8-6,9.6-4.8,11.6c2,0.8,4.1,1.7,6.5,2.7C277.5,415.4,277.9,415.9,278.5,416.7
		C279.2,415.6,277.9,415.9,278.5,416.7z M316,429.3c2.7-8,5.1-16.2,7.3-24.3c0.2-0.7,0.7-1.6-0.3-2.3c-2.8,0.1-5.2-1.4-8.1-2.1
		c-4.1,7.4-5.5,17.6-7.9,25.7c0.6,0.4,1,0.7,1.5,1C311,427.3,313.6,428.6,316,429.3C316.4,428,314.1,428.7,316,429.3z M288.9,374.6
		c-5.6,3.5-4,12.7,3.5,10.2c4.5-1.5,4.3-6.6,1.3-9.4C292.4,374.2,290.7,374.5,288.9,374.6C284.5,377.3,290.7,374.5,288.9,374.6z
		 M318.2,387.9c-1.4,2.4-2.1,4.6-0.3,7c1.8,2.5,4.3,2,6.7,1.7c1.4-1.1,2.6-2.3,3-4.1c0.4-1.7-1-4.5-2.7-5.2
		c-1.2-0.6-2.4-1.3-3.8-0.7C320,386.9,319,387.5,318.2,387.9C316.7,390.3,319,387.5,318.2,387.9z"/>
	<path fill="#FFFFFF" d="M102.5,426.9c-4.5-7-9-14-13.4-21c-3.8-6-7.2-12.9-11.7-18.4c-0.7-0.9-1.1-1.8-0.3-2.7
		c14.9-6.5,32-11.4,48.3-12.3c5.9,13.7,8.9,29.5,12.8,43.8c1.7,6.2,3.6,12.3,5.4,18.5c0.7,2.3,4.1,19,6.2,19c1.8,0,3.6,0.3,5.3-0.1
		c3.4-8.2,5.9-17.7,11.4-24.9c7.2-9.3,21.2-12.1,32.3-11s27.5,4.2,34.7,13.7c0.7,19.3-16.1,31.8-32,38.6c-16,6.9-36.9,11.7-54.2,8.9
		c-8.9-1.4-17.1-5.1-25.2-8.7c-9-4-16-5.2-25.7-3.8c-8.3,1.3-16.7,3.7-24.5,7c-3.6,1.5-7.4,2.8-10.9,4.6c-3.3,1.6-7.4,5.2-10.8,5.9
		c0-0.9,0-1.8,0-2.5c9.3-6.9,16.6-17.3,24.7-25.5c4.6-4.6,9-9.3,13.4-13.9C92.6,437.7,99.3,432.3,102.5,426.9
		C100.6,424,102.3,427.2,102.5,426.9z"/>
	<path fill="#FFFFFF" d="M648.4,455.1c0.8-0.2,1.4-0.4,2.1-0.7c3.4-13,6.9-25.9,10.8-38.7c2-6.4,3.7-13,5.5-19.5
		c1.9-6.7,4.8-13.8,5.7-20.8c0.1-1.1,0.7-2.2,2.1-2.1c16.5,2,32.8,5.2,47.9,12.2c-2.1,6.9-8.4,14-12.3,20.1
		c-4.4,7.1-9.5,14.2-13.4,21.6c2.8,5,8.8,9.6,12.8,13.6c4.7,4.8,9.3,9.6,13.9,14.5c8.5,9,16.8,19.3,26.4,27c-0.2,1-0.2,1-1.2,1.4
		c-16-8.5-34-16.8-52.5-17.4c-7.9-0.3-13.8,2.6-20.9,5.7c-8.1,3.5-16.2,6.8-24.9,8.2c-9.8,1.6-19.9-0.4-29.6-2.4
		c-7.7-1.6-15.1-3.2-22.4-6.1c-16.9-6.7-32.2-19.9-32.6-39.2c5.8-5.3,12.8-7.6,20.4-9.3c9.2-2.1,18.8-4.2,28.4-2.8
		c8.3,1.3,15.8,5.5,20.8,12.1C640.6,439.7,643.2,448.3,648.4,455.1C649.2,454.9,647.8,454.4,648.4,455.1z"/>
	<path fill="#FFFFFF" d="M398.8,128.3c5.6,1.3,9.6,11.3,13.2,15.4c1.4-0.7,2.7-1.5,4.1-2.2c3.2-1.6,6.7-2.1,10.1-1.8
		c7.1,0.6,14.7,5.1,21.6,4.9c10,12,20.5,23.2,27.1,37.4c8.5,4.5,17.9,9.7,20.1,20c1,4.3-12.1,10.9-13.3,7.4
		c-1.8-5.3-5.6-8.8-10.3-11.6c-0.7-0.5-1.5-0.4-2.1,0c-12.2,8-16.1,20.8-20.8,33.8c-2.2,6.2-4.3,12.5-6.3,18.9
		c-1.3,4.2-7.1,15.6-5,19.9c0.5,1,0.8,2,1.4,2.9c0.6,1,1.3,1.6,2.1,2.1c0.7,1.8,0.8,3.5-0.2,5c-1.6,2.7-1.6,6.6-3.1,9.4
		c-2.6,0-6.7-0.7-9.1-1.4c-1.9-2.6-2.7-5.6-3.9-8.5c-3.4,1.9-8,6-9.3,9.8c-0.4,0-0.8,0.2-1.2,0.1c-3.9-1.3-8.2-1.5-11.7-3.8
		c-0.9-2.9,2.2-8.5,2.8-11.3c0.7-4,4.6-1.4,6.6-4.1c4.6-6,9.3-12.4,12.7-19.1c4-8,6.2-16.5,8.8-25c2.5-8.2,5.1-17.3,10.2-24.3
		c4.7-6.4,11-11.3,15.9-17.4c-9-11-15.5-27.7-31-30.3c-5-0.8-9.1,4.1-13.6,5.5c-0.3,0.4-0.6,1-0.9,1.4c0.7,3.7-0.4,8.5-0.8,12.4
		c-0.3,3.9-1.4,7.8-2.2,11.6c-2.1,9.8-4.8,19.4-6.9,29.2c-3.5,15.9-14.2,41.8-0.9,55.8c0.7,0.7,0.6,1.6,0.3,2.5
		c-0.9,3-1.8,6.1-2.7,9.1c-0.5,1.8-2.1,2.6-3.9,2c-2.4-0.8-5.1-0.4-7.4-1.9c-3.9-2.4-3-8.9-5-12.4c-5.7,2.1-5.8,9.5-13,9.9
		c-2.2-1.5-3.6-3.5-4.4-6s-3.6-9.8-2-12.1c1.2-0.5,1.9,0.5,2.9,0.7c8.8-1.5,12.9-16.8,15.2-23.8c3.4-10.4,5.3-21.1,7.1-31.9
		c1.9-11.7,5-22.8,7.6-34.3c2.1-9,4.3-18.2-2.7-26.1c-2.1-2.3-4.6-3.9-7.6-4.7c-3.4-0.8-8.4-0.5-10.8,2.3c-5.3,6-5.1,12.5-5.8,20
		c-0.7,7.2-2.7,14.8-4.2,22c-0.1,0.5-0.7,0.9-0.9,1.3c-4.4-0.9-8.4-1.8-12.7-2.8c-0.1-0.1-0.5-0.5-0.8-0.8c0-4.6,1.2-9.2,2.4-13.7
		c1-3.9,0.6-10,2.6-13.2c-1.3-6.6-1.8-11.8-7.1-16.7c-8.6,0.8-18.5,1-24.6,8.2c-3.5,4.2-5.9,9.2-7.1,14.5
		c-0.6,2.5-0.4,12.4-2.2,13.3c-1,0.6-1.8-0.1-2.7-0.6c-3.7-0.1-7.2-1.3-10.7-2.2c-1.7-1.3-1.6-1.3-1.1-3.6
		c1.7-6.8,3.5-15.2,2.8-22.2c2.3-3.9,8.5-7.3,11.8-10.3c4.3-3.9,8.7-7.9,13.1-11.7c2.7-2.3,11.2-0.8,14.5-0.7
		c5,0.1,10.6,0.2,15.2,2.7c2.3,1.2,4,2.9,5.5,4.9c1.8,2.4,8.9-3.8,10.4-5.3c2.6-2.5,9.3,0.5,12.5,0.9
		C391.1,128.2,394.9,128.5,398.8,128.3C400.9,128.8,397.8,128.3,398.8,128.3z"/>
	<path fill="#FFFFFF" d="M443.9,275.7c4.8-0.2,7.8,0,12.1-2.6c7-4.2,7.8-13.1,11.6-19.4c3.6,0.7,7.1,1.4,10.5,2.1
		c0.7-0.2,1.4-0.5,2.3-0.8c0.4,0.5,0.7,1,1.2,1.6c0.7,2.6-1.8,4.3-1.1,6.7c5,0.9,10.3,1.5,15.2,3.2c1.2,0.4,2.1,1.5,1.7,2.9
		c-0.9,3.7,1.1,8.4-1.2,12c-5.2,0.6-11.3-2.3-16.7-2.3c-6.1,0-11.8,1.9-16.1,6.4c-0.1,0.1-0.1,0.3-0.3,0.5c3.4,5.1,7.3,9.4,11.3,14
		c3.5,4-7.3,9.7-9.7,11.5c-10.4-5.7-12.6-18.6-25-21.5C439.8,285.5,442.3,279.9,443.9,275.7C444.7,275.7,443.3,277.3,443.9,275.7z"
		/>
	<path fill="#FFFFFF" d="M532.7,389.7c2.2,0.9,4.3,1.8,5.4,4c0.8,1.6,0.2,3.3,0.4,4.8c-1,1.9-2.4,3.1-4.4,4.1c-1.3,0-2.9,0-4.3,0
		c-0.7-0.4-1.3-0.6-1.7-1c-2.1-2-3.9-5.5-1.7-8.2c1.2-1.5,2.5-2.9,4.6-3.3C531.5,390,532.1,389.9,532.7,389.7
		C535,390.7,532.1,389.9,532.7,389.7z"/>
	<path fill="#FFFFFF" d="M502.1,407.5c0.5,1.4-0.4,2.5-1,3.5c-1.5,2.4-6.7,4.4-9.7,1.2c-2.7-2.9-3.6-8.2,0.9-10.1
		c3.2-1.4,5.9-2.1,8.3,1.2C501.5,404.5,502.5,405.8,502.1,407.5C502.6,409,502.5,405.8,502.1,407.5z"/>
	<path fill="#FFFFFF" d="M366.9,430.6c-0.9-0.6-2-1.2-2.8-1.9c-3.5-3.2-2-8.2,1.3-10c0.7-0.4,1.3-0.7,2.1-1.1
		c5.3-0.8,9.4,4.8,7.2,9.5c-0.8,1.7-2.4,2.6-3.9,3.5C369.4,430.6,368.2,430.6,366.9,430.6C365.9,429.9,368.2,430.6,366.9,430.6z"/>
</g>
</svg>
