<?xml version="1.0" encoding="UTF-8"?>
<svg width="16px" height="16px" viewBox="0 0 16 16" version="1.1" xmlns="http://www.w3.org/2000/svg" xmlns:xlink="http://www.w3.org/1999/xlink">
    <!-- Generator: Sketch 53.2 (72643) - https://sketchapp.com -->
    <title>logo-mask-icon</title>
    <desc>Created with Sketch.</desc>
    <g id="logo-mask-icon" stroke="none" stroke-width="1" fill="none" fill-rule="evenodd">
        <g id="Icon" fill="#000000">
            <path d="M7.73644843,7.4044971 L8.13513108,6.83291501 L5.59856535,5.56793433 L4.63050545,7.78862082 L6.34446536,11.0946508 L5.96923421,14.4003774 C6.26860292,14.4952854 6.57709791,14.56977 6.89307352,14.6221897 L7.13082784,13.1952541 C7.41363187,13.2417737 7.7039826,13.2659711 8,13.2659711 C8.2960174,13.2659711 8.58636813,13.2417737 8.86917216,13.1952541 L9.10692648,14.6221897 C9.43726276,14.5673876 9.759423,14.4884694 10.0715268,14.3873106 L9.5023473,11.2336121 L10.554401,10.196557 L10.4473661,9.34255493 L10.0831087,9.7966657 L7.81849948,8.20236944 L6.36969697,8.20236944 L6.36969697,7.4044971 L7.73644843,7.4044971 L7.73644843,7.4044971 Z M8.50068055,7.70600198 L8.92610064,8.00549986 L10.1931272,6.29053702 L9.75479098,5.90801288 L8.50068055,7.70600198 L8.50068055,7.70600198 Z M10.214473,5.24897746 L11.2735394,6.17319605 L11.0536987,6.47075789 L11.9966051,7.4111566 L11.1446425,8.47327757 L11.3971141,10.487679 L10.3643194,11.5057496 L10.8305099,14.088809 C12.1831782,13.4587051 13.2897911,12.3909709 13.9672404,11.0682276 L12.7061,10.4152795 C12.970581,9.90819469 13.1550845,9.35298228 13.2429366,8.76627199 L14.6305819,8.97471207 C14.6739899,8.66748664 14.6964383,8.35354722 14.6964383,8.03437864 C14.6964383,6.19409967 13.9501401,4.5276644 12.742923,3.31969313 L11.7769676,4.26856268 C11.3698357,3.85634048 10.8953708,3.5104522 10.3713531,3.24863083 L10.9730597,2.04841811 C10.0772911,1.60502741 9.06783409,1.35575002 8,1.35575002 C6.93216591,1.35575002 5.92270894,1.60502741 5.02694028,2.04841811 L5.62864692,3.24863083 C5.10462921,3.5104522 4.63016426,3.85634048 4.22303235,4.26856268 L3.25707701,3.31969313 C2.0498599,4.5276644 1.3035617,6.19409967 1.3035617,8.03437864 C1.3035617,8.35354722 1.32601009,8.66748664 1.3694181,8.97471207 L2.75706344,8.76627199 C2.84491548,9.35298228 3.02941904,9.90819469 3.29390003,10.4152795 L2.03275964,11.0682276 C2.714961,12.4002496 3.83236813,13.4736724 5.19799229,14.1020044 L5.52220131,11.2457747 L3.74525212,7.81824572 L5.20143465,4.47782758 L6.02502565,4.8885509 L7.34898608,3.32803178 L8.54202287,3.85686014 L8.73845225,3.62830202 L10.4297873,4.94028623 L10.214473,5.24897746 L10.214473,5.24897746 Z M7.99863761,4.48912357 L7.57222604,4.30011135 L6.76141928,5.25578905 L7.16623935,5.45767208 L7.99863761,4.48912357 L7.99863761,4.48912357 Z M7.9037905,5.82548749 L8.59676942,6.17107481 L9.33990964,5.10565187 L8.84942654,4.72517961 L7.9037905,5.82548749 L7.9037905,5.82548749 Z M9.57981047,8.46571485 L9.92901247,8.71155481 L10.924607,7.47037145 L10.5737232,7.12042079 L9.57981047,8.46571485 L9.57981047,8.46571485 Z M0.839069565,5.63913901 C0.890029086,5.4838954 0.94592247,5.33087969 1.00656487,5.18027622 C0.940516276,5.05215705 0.807330796,4.92757731 0.631357922,4.83648738 C0.699419336,4.67793539 0.772474974,4.52202326 0.850327549,4.36894775 C1.03359387,4.44485821 1.21505448,4.46643965 1.35593271,4.43434263 C1.43296942,4.2910021 1.51453325,4.15044374 1.60043357,4.01285769 C1.55804935,3.87514802 1.44873284,3.72917837 1.2913092,3.60876942 C1.38589816,3.46462295 1.48503162,3.32371062 1.5885066,3.18623487 C1.75604431,3.29265722 1.93120419,3.34509567 2.07552019,3.3374491 C2.17582042,3.21027485 2.28014872,3.08640939 2.38831332,2.96604398 C2.37090225,2.82299885 2.28879353,2.66006416 2.15469173,2.5139631 C2.27273253,2.38842342 2.39479255,2.26668802 2.520667,2.14896116 C2.66715767,2.28270631 2.83052685,2.36459666 2.97395344,2.38196142 C3.09463982,2.2740845 3.21883559,2.17003367 3.34634897,2.07000019 C3.35401592,1.92606801 3.30143764,1.75137398 3.19473149,1.58428185 C3.33257385,1.48108207 3.47386195,1.38221226 3.61839281,1.28787487 C3.73912284,1.44487983 3.88548175,1.5539056 4.02355864,1.5961771 C4.16151159,1.51050524 4.30244477,1.42915833 4.44616755,1.35232651 C4.47835015,1.21182295 4.45671117,1.03084495 4.38059828,0.848066039 C4.53408199,0.770420519 4.69040988,0.697559178 4.84938468,0.629678779 C4.94071752,0.80518364 5.06562947,0.938014903 5.19409029,1.00388784 C5.34509537,0.943406719 5.49851912,0.887661987 5.65417671,0.836837997 C5.71011747,0.704013386 5.72018495,0.522175961 5.67702641,0.329179551 C5.84147309,0.279572794 6.00815353,0.235096282 6.17688054,0.19593669 C6.23636479,0.384751332 6.33641862,0.537269767 6.45161923,0.624286895 C6.61014661,0.591256207 6.77050395,0.563195332 6.93251996,0.540275113 C7.01106336,0.419399809 7.05293152,0.242071977 7.04424819,0.0444126244 C7.21453592,0.0242243869 7.38646209,0.00936292319 7.55985448,2.58585187e-14 C7.58585239,0.196444117 7.65823477,0.363978719 7.75694324,0.469262088 C7.8376483,0.466710802 7.91867365,0.465425532 8,0.465425532 C8.08132635,0.465425532 8.1623517,0.466710802 8.24305676,0.469262088 C8.34176523,0.363978719 8.41414761,0.196444117 8.44014552,0 C8.61353791,0.00936292319 8.78546408,0.0242243869 8.95575181,0.0444126244 C8.94706848,0.242071977 8.98893664,0.419399809 9.06748004,0.540275113 C9.22949605,0.563195332 9.38985339,0.591256207 9.54838077,0.624286895 C9.66358138,0.537269767 9.76363521,0.384751332 9.82311946,0.19593669 C9.99184647,0.235096282 10.1585269,0.279572794 10.3229736,0.329179551 C10.279815,0.522175961 10.2898825,0.704013386 10.3458233,0.836837997 C10.5014809,0.887661987 10.6549046,0.943406719 10.8059097,1.00388784 C10.9343705,0.938014903 11.0592825,0.80518364 11.1506153,0.629678779 C11.3095901,0.697559178 11.465918,0.770420519 11.6194017,0.848066039 C11.5432888,1.03084495 11.5216498,1.21182295 11.5538325,1.35232651 C11.6975552,1.42915833 11.8384884,1.51050524 11.9764414,1.5961771 C12.1145182,1.5539056 12.2608772,1.44487983 12.3816072,1.28787487 C12.5261381,1.38221226 12.6674261,1.48108207 12.8052685,1.58428185 C12.6985624,1.75137398 12.6459841,1.92606801 12.653651,2.07000019 C12.7811644,2.17003367 12.9053602,2.2740845 13.0260466,2.38196142 C13.1694732,2.36459666 13.3328423,2.28270631 13.479333,2.14896116 C13.6052075,2.26668802 13.7272675,2.38842342 13.8453083,2.5139631 C13.7112065,2.66006416 13.6290977,2.82299885 13.6116867,2.96604398 C13.7198513,3.08640939 13.8241796,3.21027485 13.9244798,3.3374491 C14.0687958,3.34509567 14.2439557,3.29265722 14.4114934,3.18623487 C14.5149684,3.32371062 14.6141018,3.46462295 14.7086908,3.60876942 C14.5512672,3.72917837 14.4419506,3.87514802 14.3995664,4.01285769 C14.4854668,4.15044374 14.5670306,4.2910021 14.6440673,4.43434263 C14.7849455,4.46643965 14.9664061,4.44485821 15.1496725,4.36894775 C15.227525,4.52202326 15.3005807,4.67793539 15.3686421,4.83648738 C15.1926692,4.92757731 15.0594837,5.05215705 14.9934351,5.18027622 C15.0540775,5.33087969 15.1099709,5.4838954 15.1609304,5.63913901 C15.2941092,5.69493099 15.4764316,5.7049717 15.6699426,5.66192794 C15.7196817,5.82593726 15.7642768,5.9921744 15.8035408,6.16045267 C15.6142227,6.21977871 15.4612975,6.31956645 15.3740483,6.43446067 C15.4071671,6.59256643 15.4353028,6.75249729 15.4582842,6.9140824 C15.5794818,6.99241692 15.7572825,7.03417373 15.9554689,7.02551348 C15.975711,7.19534832 15.9906121,7.36681724 16,7.53974848 C15.803032,7.56567725 15.6350507,7.63786712 15.5294865,7.73631307 C15.5320446,7.81680349 15.5333333,7.89761335 15.5333333,7.9787234 C15.5333333,8.05983346 15.5320446,8.14064332 15.5294865,8.22113373 C15.6350507,8.31957969 15.803032,8.39176956 16,8.41769833 C15.9906121,8.59062956 15.975711,8.76209849 15.9554689,8.93193332 C15.7572825,8.92327308 15.5794818,8.96502989 15.4582842,9.0433644 C15.4353028,9.20494952 15.4071671,9.36488038 15.3740483,9.52298614 C15.4612975,9.63788036 15.6142227,9.73766809 15.8035408,9.79699414 C15.7642768,9.96527241 15.7196817,10.1315095 15.6699426,10.2955189 C15.4764316,10.2524751 15.2941092,10.2625158 15.1609304,10.3183078 C15.1099709,10.4735514 15.0540775,10.6265671 14.9934351,10.7771706 C15.0594837,10.9052898 15.1926692,11.0298695 15.3686421,11.1209594 C15.3005807,11.2795114 15.227525,11.4354236 15.1496725,11.5884991 C14.9664061,11.5125886 14.7849455,11.4910072 14.6440673,11.5231042 C14.5670306,11.6664447 14.4854668,11.8070031 14.3995664,11.9445891 C14.4419506,12.0822988 14.5512672,12.2282684 14.7086908,12.3486774 C14.6141018,12.4928239 14.5149684,12.6337362 14.4114934,12.7712119 C14.2439557,12.6647896 14.0687958,12.6123511 13.9244798,12.6199977 C13.8241796,12.747172 13.7198513,12.8710374 13.6116867,12.9914028 C13.6290977,13.134448 13.7112065,13.2973826 13.8453083,13.4434837 C13.7272675,13.5690234 13.6052075,13.6907588 13.479333,13.8084856 C13.3328423,13.6747405 13.1694732,13.5928501 13.0260466,13.5754854 C12.9053602,13.6833623 12.7811644,13.7874131 12.653651,13.8874466 C12.6459841,14.0313788 12.6985624,14.2060728 12.8052685,14.373165 C12.6674261,14.4763647 12.5261381,14.5752345 12.3816072,14.6695719 C12.2608772,14.512567 12.1145182,14.4035412 11.9764414,14.3612697 C11.8384884,14.4469416 11.6975552,14.5282885 11.5538325,14.6051203 C11.5216498,14.7456239 11.5432888,14.9266019 11.6194017,15.1093808 C11.465918,15.1870263 11.3095901,15.2598876 11.1506153,15.327768 C11.0592825,15.1522632 10.9343705,15.0194319 10.8059097,14.953559 C10.6549046,15.0140401 10.5014809,15.0697848 10.3458233,15.1206088 C10.2898825,15.2534334 10.279815,15.4352708 10.3229736,15.6282673 C10.1585269,15.677874 9.99184647,15.7223505 9.82311946,15.7615101 C9.76363521,15.5726955 9.66358138,15.420177 9.54838077,15.3331599 C9.38985339,15.3661906 9.22949605,15.3942515 9.06748004,15.4171717 C8.98893664,15.538047 8.94706848,15.7153748 8.95575181,15.9130342 C8.78546408,15.9332224 8.61353791,15.9480839 8.44014552,15.9574468 C8.41414761,15.7610027 8.34176523,15.5934681 8.24305676,15.4881847 C8.1623517,15.490736 8.08132635,15.4920213 8,15.4920213 C7.91867365,15.4920213 7.8376483,15.490736 7.75694324,15.4881847 C7.65823477,15.5934681 7.58585239,15.7610027 7.55985448,15.9574468 C7.38646209,15.9480839 7.21453592,15.9332224 7.04424819,15.9130342 C7.05293152,15.7153748 7.01106336,15.538047 6.93251996,15.4171717 C6.77050395,15.3942515 6.61014661,15.3661906 6.45161923,15.3331599 C6.33641862,15.420177 6.23636479,15.5726955 6.17688054,15.7615101 C6.00815353,15.7223505 5.84147309,15.677874 5.67702641,15.6282673 C5.72018495,15.4352708 5.71011747,15.2534334 5.65417671,15.1206088 C5.49851912,15.0697848 5.34509537,15.0140401 5.19409029,14.953559 C5.06562947,15.0194319 4.94071752,15.1522632 4.84938468,15.327768 C4.69040988,15.2598876 4.53408199,15.1870263 4.38059828,15.1093808 C4.45671117,14.9266019 4.47835015,14.7456239 4.44616755,14.6051203 C4.30244477,14.5282885 4.16151159,14.4469416 4.02355864,14.3612697 C3.88548175,14.4035412 3.73912284,14.512567 3.61839281,14.6695719 C3.47386195,14.5752345 3.33257385,14.4763647 3.19473149,14.373165 C3.30143764,14.2060728 3.35401592,14.0313788 3.34634897,13.8874466 C3.21883559,13.7874131 3.09463982,13.6833623 2.97395344,13.5754854 C2.83052685,13.5928501 2.66715767,13.6747405 2.520667,13.8084856 C2.39479255,13.6907588 2.27273253,13.5690234 2.15469173,13.4434837 C2.28879353,13.2973826 2.37090225,13.134448 2.38831332,12.9914028 C2.28014872,12.8710374 2.17582042,12.747172 2.07552019,12.6199977 C1.93120419,12.6123511 1.75604431,12.6647896 1.5885066,12.7712119 C1.48503162,12.6337362 1.38589816,12.4928239 1.2913092,12.3486774 C1.44873284,12.2282684 1.55804935,12.0822988 1.60043357,11.9445891 C1.51453325,11.8070031 1.43296942,11.6664447 1.35593271,11.5231042 C1.21505448,11.4910072 1.03359387,11.5125886 0.850327549,11.5884991 C0.772474974,11.4354236 0.699419336,11.2795114 0.631357922,11.1209594 C0.807330796,11.0298695 0.940516276,10.9052898 1.00656487,10.7771706 C0.94592247,10.6265671 0.890029086,10.4735514 0.839069565,10.3183078 C0.705890755,10.2625158 0.523568431,10.2524751 0.330057363,10.2955189 C0.280318322,10.1315095 0.235723205,9.96527241 0.196459187,9.79699414 C0.385777335,9.73766809 0.538702486,9.63788036 0.62595166,9.52298614 C0.59283289,9.36488038 0.564697186,9.20494952 0.541715846,9.0433644 C0.420518208,8.96502989 0.242717502,8.92327308 0.044531058,8.93193332 C0.0242889852,8.76209849 0.00938789099,8.59062956 -2.1591722e-13,8.41769833 C0.196967968,8.39176956 0.364949329,8.31957969 0.470513454,8.22113373 C0.467955365,8.14064332 0.466666667,8.05983346 0.466666667,7.9787234 C0.466666667,7.89761335 0.467955365,7.81680349 0.470513454,7.73631307 C0.364949329,7.63786712 0.196967968,7.56567725 -2.27373675e-13,7.53974848 C0.00938789099,7.36681724 0.0242889852,7.19534832 0.044531058,7.02551348 C0.242717502,7.03417373 0.420518208,6.99241692 0.541715846,6.9140824 C0.564697186,6.75249729 0.59283289,6.59256643 0.62595166,6.43446067 C0.538702486,6.31956645 0.385777335,6.21977871 0.196459187,6.16045267 C0.235723205,5.9921744 0.280318322,5.82593726 0.330057363,5.66192794 C0.523568431,5.7049717 0.705890755,5.69493099 0.839069565,5.63913901 Z M8,14.5553911 C8.2209139,14.5553911 8.4,14.3767812 8.4,14.1564549 C8.4,13.9361285 8.2209139,13.7575187 8,13.7575187 C7.7790861,13.7575187 7.6,13.9361285 7.6,14.1564549 C7.6,14.3767812 7.7790861,14.5553911 8,14.5553911 Z M1.72853796,10.0110255 C1.79680411,10.2205683 2.02246576,10.3352429 2.23256736,10.2671583 C2.44266896,10.1990737 2.55764932,9.97401219 2.48938317,9.76446936 C2.42111702,9.55492654 2.19545537,9.44025198 1.98535376,9.50833657 C1.77525216,9.57642116 1.66027181,9.80148265 1.72853796,10.0110255 Z M4.1240233,2.65808751 C3.9453002,2.7875921 3.90568067,3.03707468 4.0355306,3.21532245 C4.16538053,3.39357022 4.4155284,3.43308438 4.5942515,3.30357979 C4.7729746,3.17407521 4.81259413,2.92459263 4.6827442,2.74634485 C4.55289426,2.56809708 4.3027464,2.52858292 4.1240233,2.65808751 Z M14.271462,10.0110255 C14.3397282,9.80148265 14.2247478,9.57642116 14.0146462,9.50833657 C13.8045446,9.44025198 13.578883,9.55492654 13.5106168,9.76446936 C13.4423507,9.97401219 13.557331,10.1990737 13.7674326,10.2671583 C13.9775342,10.3352429 14.2031959,10.2205683 14.271462,10.0110255 Z M11.8759767,2.65808751 C11.6972536,2.52858292 11.4471057,2.56809708 11.3172558,2.74634485 C11.1874059,2.92459263 11.2270254,3.17407521 11.4057485,3.30357979 C11.5844716,3.43308438 11.8346195,3.39357022 11.9644694,3.21532245 C12.0943193,3.03707468 12.0546998,2.7875921 11.8759767,2.65808751 Z" id="Black"></path>
        </g>
    </g>
</svg>