<?xml version="1.0" encoding="utf-8"?>
<!-- Generator: Adobe Illustrator 19.2.0, SVG Export Plug-In . SVG Version: 6.00 Build 0)  -->
<!DOCTYPE svg PUBLIC "-//W3C//DTD SVG 1.1//EN" "http://www.w3.org/Graphics/SVG/1.1/DTD/svg11.dtd">
<svg version="1.1" id="Layer_1" xmlns="http://www.w3.org/2000/svg" xmlns:xlink="http://www.w3.org/1999/xlink" x="0px" y="0px"
	 viewBox="0 0 32 32" style="enable-background:new 0 0 32 32;" xml:space="preserve">
<style type="text/css">
	.st0{fill:#FFFFFF;}
</style>
<path class="st0" d="M16,2C8.3,2,2,8.4,2,16.4c0,6.3,4,11.7,9.6,13.6c0.1,0,0.2,0,0.2,0c0.5,0,0.7-0.4,0.7-0.7c0-0.3,0-1.2,0-2.4
	C12,27,11.5,27,11.1,27c-2.7,0-3.3-2.1-3.3-2.1c-0.6-1.7-1.6-2.1-1.6-2.1c-1.2-0.9,0-0.9,0.1-0.9c0,0,0,0,0,0
	c1.4,0.1,2.1,1.5,2.1,1.5c0.7,1.2,1.6,1.6,2.5,1.6c0.7,0,1.2-0.2,1.6-0.4c0.1-0.9,0.5-1.6,0.9-1.9c-3.1-0.4-6.4-1.6-6.4-7.1
	c0-1.6,0.5-2.9,1.4-3.9C8.4,11.4,7.9,9.9,8.6,8c0,0,0.1,0,0.3,0c0.5,0,1.6,0.2,3.5,1.5C13.6,9.1,14.8,9,16,8.9
	c1.2,0,2.4,0.2,3.5,0.5c1.9-1.3,3-1.5,3.5-1.5c0.2,0,0.3,0,0.3,0c0.8,2,0.3,3.4,0.1,3.8c0.9,1,1.4,2.3,1.4,3.9
	c0,5.5-3.3,6.7-6.4,7.1c0.5,0.4,1,1.3,1,2.7c0,1.9,0,3.5,0,3.9c0,0.3,0.2,0.7,0.7,0.7c0.1,0,0.2,0,0.2,0C26,28.1,30,22.7,30,16.4
	C30,8.4,23.7,2,16,2z"/>
</svg>
