<?xml version="1.0" encoding="utf-8"?>
<!-- Generator: Adobe Illustrator 19.2.0, SVG Export Plug-In . SVG Version: 6.00 Build 0)  -->
<!DOCTYPE svg PUBLIC "-//W3C//DTD SVG 1.1//EN" "http://www.w3.org/Graphics/SVG/1.1/DTD/svg11.dtd">
<svg version="1.1" id="Ebene_1" xmlns="http://www.w3.org/2000/svg" xmlns:xlink="http://www.w3.org/1999/xlink" x="0px" y="0px"
	 viewBox="0 0 32 32" style="enable-background:new 0 0 32 32;" xml:space="preserve">
<style type="text/css">
	.st0{fill:#FFFFFF;}
</style>
<path class="st0" d="M29.2,7.8c-0.7,1.1-1.7,2-2.7,2.8c0,0.2,0,0.4,0,0.7c0,1.5-0.2,2.9-0.6,4.3s-1.1,2.8-1.9,4.2s-1.9,2.5-3.1,3.5
	s-2.6,1.8-4.3,2.4s-3.5,0.9-5.4,0.9c-3,0-5.8-0.8-8.3-2.4c0.4,0,0.8,0.1,1.3,0.1c2.5,0,4.7-0.8,6.7-2.3c-1.2,0-2.2-0.4-3.1-1.1
	s-1.6-1.6-1.9-2.7c0.4,0.1,0.7,0.1,1,0.1c0.5,0,1-0.1,1.4-0.2c-1.2-0.3-2.3-0.9-3.1-1.9S4,14.1,4,12.8v-0.1c0.8,0.4,1.6,0.7,2.4,0.7
	c-0.8-0.4-1.4-1-1.8-1.8C4.1,10.8,3.9,9.9,3.9,9c0-1,0.2-1.9,0.7-2.7c1.4,1.7,3,3,4.9,4s4,1.6,6.2,1.7c-0.1-0.4-0.1-0.8-0.1-1.2
	c0-1.5,0.5-2.8,1.6-3.8s2.3-1.6,3.8-1.6c1.6,0,2.9,0.6,4,1.7c1.2-0.2,2.4-0.7,3.4-1.3C28,7,27.2,8,26.1,8.7
	C27.1,8.6,28.2,8.3,29.2,7.8z"/>
</svg>
