<?xml version="1.0" encoding="utf-8"?>
<!-- Generator: Adobe Illustrator 19.2.0, SVG Export Plug-In . SVG Version: 6.00 Build 0)  -->
<!DOCTYPE svg PUBLIC "-//W3C//DTD SVG 1.1//EN" "http://www.w3.org/Graphics/SVG/1.1/DTD/svg11.dtd">
<svg version="1.1" id="AppStore" xmlns="http://www.w3.org/2000/svg" xmlns:xlink="http://www.w3.org/1999/xlink" x="0px" y="0px"
	 viewBox="0 0 245 80" enable-background="new 0 0 245 80" xml:space="preserve">
<path id="Button_2_" d="M8.8,0h227.4c4.9,0,8.8,3.9,8.8,8.8v62.4c0,4.9-3.9,8.8-8.8,8.8H8.8C3.9,80,0,76.1,0,71.2V8.8
	C0,3.9,3.9,0,8.8,0z"/>
<text transform="matrix(1 0 0 1 60.7123 28.8205)" fill="#FFFFFF" font-family="'MyriadPro-Semibold'" font-size="20.6296px" letter-spacing="1">Available on the</text>
<text transform="matrix(1 0 0 1 60.7123 61.7287)" fill="#FFFFFF" font-family="'MyriadPro-Semibold'" font-size="40.5549px">App Store</text>
<path id="iPhone" fill="#FFFFFF" d="M43.3,12.4H22.8c-2.7,0-4.9,2.2-4.9,4.9v45.4c0,2.7,2.2,4.9,4.9,4.9h20.5c2.7,0,4.9-2.2,4.9-4.9
	V17.3C48.2,14.6,46,12.4,43.3,12.4z M30.8,17.2h4.5c0.4,0,0.7,0.3,0.7,0.7s-0.3,0.7-0.7,0.7h-4.5c-0.4,0-0.7-0.3-0.7-0.7
	S30.4,17.2,30.8,17.2z M33.1,65.1c-1.5,0-2.6-1.2-2.6-2.6c0-1.5,1.2-2.6,2.6-2.6s2.6,1.2,2.6,2.6C35.7,64,34.5,65.1,33.1,65.1z
	 M45.7,58.6H20.4V21.4h25.3V58.6z"/>
</svg>
